<svg width="320" height="200" viewBox="0 0 320 200" fill="none" xmlns="http://www.w3.org/2000/svg">
<g id="brands 2">
<g id="alcoa">
<path id="path10550" fill-rule="evenodd" clip-rule="evenodd" d="M56.4073 81.5151H31.1312C27.3633 81.5151 23.6738 77.8427 23.6738 74.0143V49.0113C23.6738 45.3393 27.3633 41.667 31.1312 41.667H56.4069C60.2533 41.667 63.8639 45.3393 63.8639 49.0113V74.0143C63.8639 77.8427 60.2537 81.5151 56.4073 81.5151V81.5151ZM43.8477 46.1986L26.3431 66.5915L34.9779 76.7486L43.8477 66.8261L52.6394 76.7486L61.431 66.5915L43.8477 46.1986Z" fill="#3165AA"/>
<path id="path10552" fill-rule="evenodd" clip-rule="evenodd" d="M39.3738 97.767C37.5685 97.767 36.077 96.2822 36.077 94.5637V89.1728C36.077 87.3754 37.5685 85.9687 39.3738 85.9687H48.3224V88.2347H38.5886V95.5006H48.322V97.7666H39.3738V97.767ZM27.0495 97.767C25.2442 97.767 23.8311 96.2822 23.8311 94.5637V85.891H26.2643V95.501H34.6638V97.767H27.0495ZM60.6463 97.767H53.2673C51.5405 97.767 50.0489 96.2822 50.0489 94.5637V89.1728C50.0489 87.3754 51.5405 85.9687 53.2673 85.9687H60.6463C62.4512 85.9687 63.8644 87.3754 63.8644 89.1728V94.5637C63.8644 96.2826 62.4516 97.767 60.6463 97.767ZM52.561 95.501H61.4307V88.2351H52.561V95.501ZM20.3773 97.767H22.9675L16.531 87.0629C16.0599 86.3597 15.5108 86.0471 14.726 86.0471C13.9408 86.0471 13.3913 86.3597 12.9203 87.0629L6.4834 97.767H9.07352L10.4082 95.5794H19.1215L20.3773 97.767ZM11.6644 93.4695L14.6472 88.4688L14.726 88.3904L14.8829 88.4688L17.7876 93.4695H11.6644ZM78.3862 97.767H80.9767L74.5402 87.0629C74.0692 86.3597 73.5197 86.0471 72.7349 86.0471C71.9497 86.0471 71.3998 86.3597 70.9292 87.0629L64.4927 97.767H67.0832L68.4175 95.5794H77.1307L78.3862 97.767ZM69.6729 93.4695L72.6556 88.4688L72.7345 88.3904L72.8914 88.4688L75.7961 93.4695H69.6729Z" fill="#3165AA" stroke="#3165AA" stroke-width="0.31854" stroke-miterlimit="2.613"/>
<path id="path10554" fill-rule="evenodd" clip-rule="evenodd" d="M43.8478 66.748L35.4487 57.2938H52.3257L43.8478 66.748Z" fill="#3165AA"/>
</g>
<g id="ford">
<path id="path10570" d="M164.267 47.1012C135.021 47.1012 111.573 55.8678 111.573 66.8589C111.573 77.7841 135.214 86.6213 164.267 86.6213C193.323 86.6213 216.96 77.7558 216.96 66.8589C216.96 55.9621 193.323 47.1012 164.267 47.1012" fill="#003478"/>
<g id="g10578">
<path id="path10572" d="M185.024 71.0443C185.038 71.1385 185.156 71.2234 185.269 71.2658C185.316 71.2799 185.335 71.3082 185.287 71.4072C184.958 72.1047 184.661 72.5101 184.251 73.1228C183.874 73.6884 183.445 74.1267 182.931 74.5509C182.148 75.1966 181.069 75.8941 180.174 75.4275C179.778 75.2201 179.608 74.664 179.613 74.2162C179.632 72.9484 180.197 71.6523 181.234 70.375C182.502 68.8196 183.902 68.009 184.816 68.4473C185.768 68.9045 185.467 70.0026 185.042 70.8652C185.013 70.9202 185.006 70.9844 185.024 71.0443V71.0443ZM195.223 61.1937C195.289 61.0712 195.223 60.9816 195.067 60.9816H192.404C192.206 60.9816 192.103 61.0099 192.013 61.1937C191.707 61.7781 187.983 67.3538 187.291 68.4379C187.177 68.6028 187.031 68.5793 187.017 68.3907C186.947 67.7497 186.39 67.0098 185.514 66.6563C184.882 66.4013 184.194 66.3199 183.52 66.4206C182.295 66.5903 181.206 67.236 180.244 67.9618C178.802 69.06 177.558 70.4834 175.946 71.5391C175.065 72.1094 173.863 72.609 173.057 71.8644C172.331 71.1904 172.411 69.6869 173.528 68.5274C173.646 68.4049 173.787 68.5086 173.764 68.617C173.704 68.8691 173.711 69.1327 173.786 69.381C173.86 69.6293 173.999 69.8535 174.188 70.0309C174.673 70.4645 175.366 70.5164 175.965 70.2195C176.3 70.0449 176.587 69.7915 176.802 69.4811C177.017 69.1708 177.154 68.8127 177.2 68.4379C177.239 68.162 177.221 67.881 177.147 67.6123C177.073 67.3436 176.945 67.0931 176.77 66.8764C176.595 66.6596 176.377 66.4813 176.129 66.3527C175.882 66.224 175.611 66.1476 175.333 66.1284C174.409 66.0624 173.519 66.3829 172.651 67.0993C172.242 67.4295 171.886 67.8205 171.596 68.2588C171.501 68.3907 171.365 68.4002 171.369 68.2116C171.412 66.694 170.785 65.8409 169.531 65.8126C168.56 65.7891 167.519 66.3169 166.708 66.9626C165.822 67.6743 165.044 68.6217 164.21 69.5078C164.111 69.6209 164.022 69.6162 163.989 69.4041C163.993 68.4621 163.737 67.5371 163.249 66.7317C163.162 66.6064 163.033 66.5175 162.885 66.4818C162.737 66.4461 162.581 66.4663 162.447 66.5385C162.311 66.6091 161.844 66.8212 161.505 67.0993C161.335 67.2407 161.269 67.4387 161.344 67.6979C161.792 69.1967 161.693 70.9029 161.085 72.3451C160.524 73.6648 159.44 74.8572 158.163 75.2578C157.324 75.5265 156.447 75.3945 155.905 74.6451C155.165 73.6177 155.462 71.8314 156.57 70.342C157.55 69.0317 158.964 68.2022 160.374 67.6649C160.539 67.6036 160.576 67.4952 160.529 67.3538L160.279 66.6657C160.147 66.3169 159.784 66.2651 159.346 66.3122C158.319 66.43 157.395 66.7835 156.48 67.269C154.091 68.551 152.889 71.0301 152.366 72.3592C152.188 72.8566 151.935 73.3239 151.616 73.7449C151.239 74.2162 150.768 74.6498 149.901 75.4087C149.854 75.4518 149.821 75.5088 149.809 75.5715C149.796 75.6342 149.803 75.6993 149.83 75.7574C150.008 76.0806 150.231 76.376 150.495 76.6341C150.636 76.7048 150.801 76.6058 150.867 76.5587C151.47 76.1486 152.196 75.4982 152.55 75.0552C152.672 74.9044 152.804 74.9703 152.87 75.1966C153.03 75.7852 153.332 76.3255 153.749 76.7701C154.167 77.2147 154.687 77.55 155.264 77.7464C157.456 78.4864 159.733 77.4165 161.448 75.5501C162.537 74.3718 162.933 73.6035 163.352 73.0898C164.059 72.2084 165.459 70.243 167.123 68.9846C167.736 68.518 168.457 68.1645 168.82 68.4002C169.112 68.5887 169.206 69.027 168.739 69.8801C167.043 72.9814 164.545 76.62 164.083 77.506C163.998 77.6569 164.073 77.7794 164.234 77.7794H166.807C166.944 77.77 167.005 77.7087 167.071 77.6144C168.372 75.5736 169.597 73.6318 170.912 71.6287C170.988 71.5062 171.054 71.6004 171.054 71.6523C171.087 72.1142 171.195 72.7504 171.478 73.1699C171.682 73.5123 171.972 73.7953 172.319 73.9905C172.666 74.1857 173.059 74.2863 173.457 74.2822C174.01 74.2898 174.558 74.1738 175.06 73.9429C175.607 73.7402 176.05 73.4763 176.38 73.2359C176.578 73.0992 176.615 73.3302 176.606 73.3631C176.304 74.9798 176.676 76.898 178.288 77.6993C180.211 78.6419 182.328 77.3128 183.548 76.1062C183.666 75.9884 183.793 76.0025 183.808 76.2523C183.836 76.7142 184.043 77.2562 184.42 77.6427C185.438 78.6655 187.498 78.2554 189.562 76.6577C190.891 75.6349 192.277 74.188 193.531 72.6562C193.578 72.5996 193.616 72.5053 193.521 72.4064C193.333 72.2084 193.055 71.9822 192.866 71.8031C192.781 71.7277 192.654 71.7512 192.583 71.8031C191.297 73.0285 190.137 74.4189 188.469 75.5736C187.903 75.9648 187.008 76.2806 186.602 75.7386C186.442 75.5265 186.461 75.2343 186.617 74.8431C187.102 73.6318 194.818 61.8818 195.223 61.189" fill="white"/>
<path id="path10574" d="M158.913 62.6124C158.946 62.7868 159.016 62.8197 159.097 62.8009C159.536 62.6812 159.918 62.4067 160.171 62.0279C160.407 61.6886 160.515 61.1984 160.284 61.0005C160.077 60.8261 159.742 60.8732 159.492 61.0947C159.28 61.2819 159.117 61.5178 159.016 61.7821C158.915 62.0465 158.879 62.3314 158.913 62.6124V62.6124ZM139.245 77.737C136.37 77.7558 133.834 75.979 133.542 72.8965C133.373 71.2936 133.835 69.6881 134.828 68.419C135.686 67.302 137.138 66.3782 138.363 66.152C138.759 66.0766 139.296 66.1237 139.518 66.3876C139.867 66.793 139.768 67.236 139.419 67.4151C138.481 67.8911 137.355 68.7112 136.798 69.8283C136.542 70.303 136.419 70.8389 136.445 71.378C136.471 71.9172 136.644 72.439 136.945 72.8871C138.099 74.631 141.323 74.6781 144.316 71.8973C145.061 71.2139 145.72 70.5588 146.394 69.7858C147.714 68.2776 148.152 67.7262 149.906 65.2942C149.925 65.2659 149.934 65.2282 149.925 65.214C149.91 65.1811 149.887 65.1763 149.835 65.1669C148.666 65.2046 147.643 65.5534 146.654 66.2934C146.371 66.5007 145.956 66.4725 145.777 66.1991C145.579 65.888 145.72 65.4827 146.05 65.2565C147.643 64.1442 149.387 63.9462 151.169 63.6446C151.169 63.6446 151.291 63.6446 151.395 63.5173C152.126 62.5747 152.677 61.731 153.455 60.7836C154.242 59.8222 155.255 58.9361 156.028 58.2715C157.112 57.343 157.805 57.0319 158.507 56.6455C158.696 56.5512 158.484 56.4334 158.427 56.4334C154.492 55.6934 150.405 54.7366 146.498 56.1836C143.793 57.1922 142.605 59.3414 143.175 60.7742C143.581 61.7923 144.919 61.9525 146.173 61.3398C147.21 60.8355 148.176 60.0107 148.859 58.9549C149.237 58.3658 150.042 58.79 149.609 59.8127C148.464 62.4992 146.281 64.6296 143.623 64.7192C141.356 64.7946 139.895 63.1261 139.9 61.0712C139.909 57.0178 144.424 54.3501 149.161 53.9495C154.873 53.4782 160.284 55.0006 165.954 55.6887C170.3 56.2119 174.466 56.226 178.835 55.2174C179.354 55.109 179.712 55.4389 179.684 55.9573C179.637 56.7115 179.052 57.4373 177.615 58.2197C175.979 59.1199 174.268 59.3933 172.477 59.4074C168.16 59.4451 164.135 57.7578 159.964 56.8528C159.968 57.0367 160.02 57.2535 159.869 57.3713C157.56 59.068 155.472 60.7978 154.072 63.2251C154.025 63.2816 154.053 63.3382 154.134 63.3288C155.35 63.2675 156.438 63.2345 157.574 63.1402C157.767 63.1261 157.777 63.079 157.763 62.9329C157.701 62.4847 157.749 62.0284 157.902 61.6025C158.054 61.1767 158.307 60.794 158.639 60.4867C159.393 59.8127 160.336 59.7326 160.963 60.2228C161.67 60.7742 161.609 61.7734 161.222 62.5181C161.048 62.846 160.81 63.1355 160.521 63.3695C160.233 63.6034 159.901 63.7771 159.544 63.8802C159.544 63.8802 159.412 63.9085 159.431 64.0263C159.455 64.2148 160.313 64.6909 160.383 64.8181C160.454 64.9407 160.416 65.1245 160.289 65.2659C160.239 65.3273 160.175 65.3768 160.104 65.411C160.032 65.4452 159.954 65.4632 159.874 65.4638C159.728 65.4638 159.639 65.412 159.45 65.3083C159.001 65.0682 158.601 64.7452 158.272 64.3562C158.159 64.2196 158.102 64.2148 157.833 64.2337C156.608 64.3044 154.694 64.4882 153.403 64.6485C153.087 64.6862 153.04 64.7474 152.979 64.8558C150.914 68.2588 148.709 71.9303 146.286 74.3906C143.694 77.0253 141.535 77.7181 139.245 77.737V77.737Z" fill="white"/>
<path id="path10576" d="M164.267 50.3345C137.359 50.3345 115.551 57.7672 115.551 66.8684C115.551 75.9648 137.359 83.4022 164.267 83.4022C191.174 83.4022 212.982 75.9648 212.982 66.8684C212.982 57.7719 191.17 50.3345 164.267 50.3345ZM164.267 84.901C136.379 84.901 113.774 76.8273 113.774 66.8684C113.774 56.9047 136.379 48.8357 164.267 48.8357C192.15 48.8357 214.754 56.9047 214.754 66.8684C214.754 76.8273 192.15 84.901 164.267 84.901Z" fill="white"/>
</g>
</g>
<g id="gm">
<path id="path10597" fill-rule="evenodd" clip-rule="evenodd" d="M258.426 48.2356H308.092V94.2212H258.426V48.2356Z" fill="white"/>
<path id="path10599" fill-rule="evenodd" clip-rule="evenodd" d="M252.185 100.289H313.01V40.5285H252.185V100.289ZM283.302 54.2178H288.249L291.182 70.0353L293.972 54.2467H299.005V77.4549H295.928V61.1773L292.62 77.5123H289.86L286.495 60.9761L286.524 77.685H283.273L283.302 54.2178ZM266.334 65.1172V60.0558C266.334 58.9343 265.989 53.3838 272.288 53.3264C278.586 53.269 278.557 57.9566 278.557 57.9566V61.4367H275.164C275.164 61.4367 275.71 56.7776 272.547 56.6624C269.929 56.5761 270.131 59.5956 270.131 59.5956V72.0197C270.131 72.0197 269.929 74.9529 272.547 74.9529C275.509 74.9529 275.164 71.9049 275.164 71.9049V67.4759H272.921V65.0891H278.557V78.2894H275.94V76.9089L275.739 77.4549C275.278 78.2311 273.725 78.2889 272.287 78.2889C265.989 78.2311 266.334 72.681 266.334 71.5595V65.1172ZM266.45 86.859V81.4238H299.35V86.859H266.45Z" fill="#2360A5"/>
</g>
<g id="magna">
<g id="g10624">
<path id="path10618" d="M107.23 126.965H118.202L122.249 142.372H122.522C122.716 141.089 122.912 139.727 123.262 138.484L126.567 126.965H137.426L142.249 156.303H131.939L130.497 140.234H130.304C130.11 141.205 129.915 142.216 129.604 143.151L125.363 156.303H119.137L115.324 143.889C115.013 142.644 114.739 141.477 114.661 140.233H114.311C114.234 141.4 114.157 142.606 114.039 143.771L112.793 156.302H102.482L107.23 126.965Z" fill="#ACACAC"/>
<path id="path10620" d="M158.029 145.681L156.785 140.506C156.473 139.259 156.278 137.976 156.082 136.731H155.695L153.749 145.681H158.029ZM150.985 156.303H139.702L149.896 126.965H161.687L172.154 156.303H160.869L159.898 152.644H151.842L150.985 156.303ZM201.139 139.027C201.058 143.813 201.058 147.82 197.596 151.554C194.482 154.941 189.699 156.769 185.146 156.769C176.198 156.769 168.961 151.244 168.961 141.828C168.961 132.257 176.002 126.498 185.224 126.498C190.321 126.498 197.326 129.027 199.62 134.046L189.659 137.705C188.842 136.226 187.326 135.448 185.613 135.448C181.802 135.448 179.698 138.716 179.698 142.256C179.698 145.484 181.722 148.52 185.184 148.52C186.859 148.52 188.998 147.741 189.503 145.952H184.68V139.027H201.139ZM201.935 126.965H212.17L221.74 143.229H222.05C221.624 140.777 221.156 138.249 221.156 135.759V126.965H231.349V156.303H221.156L211.78 140.895H211.469C211.818 142.917 212.13 144.824 212.13 146.771V156.303H201.935V126.965Z" fill="#ACACAC"/>
<path id="path10622" d="M248.609 145.681L247.362 140.506C247.052 139.259 246.857 137.976 246.661 136.731H246.273L244.327 145.681H248.609ZM241.566 156.303H230.282L240.475 126.965H252.265L262.732 156.303H251.448L250.476 152.644H242.422L241.566 156.303Z" fill="#ACACAC"/>
</g>
<path id="path10626" d="M86.2202 156.332L97.2751 156.333L86.6289 127.044L78.5361 127.043L77.0488 131.119L86.2202 156.332Z" fill="black"/>
<path id="path10628" d="M78.7227 114.581C75.7566 114.581 73.3525 116.984 73.3525 119.952C73.3525 122.916 75.7566 125.321 78.7227 125.321C81.6888 125.321 84.0922 122.916 84.0922 119.952C84.0922 116.984 81.6888 114.581 78.7227 114.581" fill="#E22E2F"/>
<path id="path10630" d="M54.9771 156.332L71.4569 156.33L63.2148 133.706L54.9771 156.332ZM73.3263 156.332L84.3811 156.333L73.7324 127.044L65.6406 127.043L64.1552 131.119L73.3263 156.332Z" fill="black"/>
</g>
</g>
</svg>
