<svg width="553" height="424" viewBox="0 0 553 424" fill="none" xmlns="http://www.w3.org/2000/svg">
<g id="about-one 1">
<g id="robot-left">
<path id="rect23344-5-8" d="M244.098 86.3596L243.629 85.8645C242.831 85.0228 241.52 85.0049 240.7 85.8244L237.733 88.7893C236.913 89.6088 236.895 90.9556 237.692 91.7973L238.161 92.2924C238.958 93.1342 240.27 93.1521 241.09 92.3325L244.057 89.3677C244.877 88.5481 244.895 87.2013 244.098 86.3596Z" fill="#808080"/>
<path id="rect23344-9" d="M243.618 83.5364L236.366 75.8817C235.21 74.6613 233.309 74.6353 232.12 75.8236L227.818 80.122C226.629 81.3103 226.603 83.2632 227.759 84.4836L235.01 92.1383C236.166 93.3587 238.068 93.3847 239.257 92.1965L243.558 87.898C244.747 86.7097 244.774 84.7568 243.618 83.5364Z" fill="#333333"/>
<path id="rect1717-7-3-6-4-6-2" opacity="0.95" d="M131.107 206.456V212.523L140.675 249.974L131.151 249.749V251.103L72.6747 251.347V250.013L64.8237 249.998L72.6747 218.133V206.456H131.107Z" fill="#0B2228"/>
<path id="path2683-9-0-7-7-7-8-6" opacity="0.4" d="M103.225 210.729V249.802H110.633L106.112 210.674L103.225 210.729Z" fill="black"/>
<path id="path2705-9-5-5-4-9-6" opacity="0.4" d="M75.2855 209.444H77.0119V250.533H64.395L75.2855 209.444Z" fill="black" stroke="black" stroke-width="0.162575"/>
<path id="path2705-1-3-9-3-4-2-4" opacity="0.4" d="M128.779 210.068H127.052V251.457H139.668L128.779 210.068Z" fill="black" stroke="black" stroke-width="0.163163"/>
<path id="rect2542-6-2-5-3-6-9" d="M132.922 209.375V211.564H131.435L140.52 248.479H142.109V251.491H61.9214V248.479H63.5605L72.6454 211.564H71.212V209.375H132.922ZM129.447 211.564H101.919V248.479H138.532L129.447 211.564ZM98.8985 211.564H74.6326L65.5477 248.479H94.3872L98.8985 211.564Z" fill="#4D4D4D"/>
<path id="rect3024-2-6-0-6-5" d="M143.483 152.462H61.6704L80.1625 206.89L123.318 206.732L143.483 152.462Z" fill="#FF7F2A"/>
<path id="rect3517-2-7-4-0" d="M47.0167 118.978H88.3689C92.2002 118.978 95.3064 126.046 95.3064 134.764V145.221C95.3064 153.94 92.2002 161.008 88.3689 161.008H47.0167C43.1854 161.008 40.0801 153.94 40.0801 145.221V134.764C40.0801 126.046 43.1854 118.978 47.0167 118.978Z" fill="#373E48"/>
<path id="rect3247-7-9-8-9-4" d="M57.7954 39.3321L78.1457 30.6957C78.1457 30.6957 127.05 67.761 146.386 87.041C159.319 99.9386 147.031 140.534 147.031 140.534L131.247 179.388L57.7954 39.3321Z" fill="#FF7F2A"/>
<path id="path3027-8-1-6-5-87" d="M129.62 174.23C116.063 174.23 105.073 162.476 105.073 147.976C105.073 133.476 116.063 121.722 129.62 121.722C143.177 121.722 154.167 133.476 154.167 147.976C154.167 162.476 143.177 174.23 129.62 174.23Z" fill="#373E48"/>
<path id="rect3345-3-2-8-0-17" d="M231.458 67.9414L224.933 61.0652L213.488 72.5221L220.013 79.3982L231.458 67.9414Z" fill="#FF7F2A"/>
<path id="rect3347-6-7-8-4-27" d="M237.566 68.7299L234.077 65.0525L217.046 82.1002L220.536 85.7775L237.566 68.7299Z" fill="#FF7F2A"/>
<path id="rect3347-2-1-0-4-8-2" d="M239.385 73.6827L235.895 70.0054L221.854 84.0611L225.343 87.7385L239.385 73.6827Z" fill="#1C2224"/>
<path id="rect3288-1-3-9-2-1" d="M68.6925 0.280628C63.8357 -0.955199 58.9573 2.06575 57.7539 7.0536L53.8801 23.1124C52.677 28.1003 55.6174 33.1108 60.4739 34.3466L84.6427 40.4966C88.3675 41.4445 92.1038 39.8865 94.1862 36.8592L101.91 38.8246L107.181 16.9755L99.7151 15.0758C99.5729 11.0458 96.8705 7.45094 92.8605 6.43059L68.6925 0.280628Z" fill="#FF7F2A"/>
<path id="path3027-2-9-6-2-7-0" d="M69.2366 55.8758C58.5134 55.8758 49.8203 47.1255 49.8203 36.3315C49.8203 25.5374 58.5134 16.7872 69.2366 16.7872C79.9598 16.7872 88.6529 25.5374 88.6529 36.3315C88.6529 47.1255 79.9598 55.8758 69.2366 55.8758Z" fill="#373E48"/>
<path id="rect3310-3-0-1-1-2" d="M213.489 39.1423C210.618 38.3733 207.597 38.4112 204.741 39.2519C201.884 40.0926 199.295 41.7057 197.242 43.9239L104.516 19.0868L100.487 34.9582L193.064 59.7556C193.758 62.7899 195.239 65.57 197.35 67.7974C199.461 70.0248 202.121 71.6155 205.045 72.3988C207.16 72.9653 209.364 73.0962 211.53 72.7839C213.696 72.4717 215.782 71.7224 217.669 70.5789C219.557 69.4354 221.209 67.92 222.53 66.1193C223.852 64.3186 224.817 62.2679 225.371 60.0842C225.926 57.9005 226.059 55.6266 225.761 53.3923C225.464 51.158 224.744 49.0072 223.641 47.0625C222.537 45.1179 221.072 43.4175 219.331 42.0586C217.589 40.6996 215.604 39.7087 213.489 39.1423Z" fill="#FF7F2A"/>
<path id="path3027-2-8-7-9-9-6-4-7-6" d="M203.016 67.2368C196.83 63.5901 194.718 55.4396 198.299 49.0321C201.879 42.6247 209.797 40.3867 215.983 44.0335C222.169 47.6802 224.281 55.8307 220.701 62.2382C217.12 68.6456 209.202 70.8836 203.016 67.2368Z" fill="#373E48"/>
<path id="path10689" opacity="0.1" d="M57.7085 6.38559L81.2105 8.69986L93.6048 12.6872L99.4551 13.0484C99.4551 13.0484 98.6815 10.7557 97.9656 9.8059C97.0747 8.62418 94.5975 6.91339 94.5975 6.91339L67.8556 9.63394e-10C67.8556 9.63394e-10 64.7189 -0.000422955 63.2926 0.559224C61.862 1.12037 59.5559 3.25927 59.5559 3.25927L57.7085 6.38559Z" fill="#1A1A1A"/>
<path id="path10394" opacity="0.25" d="M62.5625 192.449L63.9389 191.375L67.8599 191.286L67.9223 187.365L73.4761 187.3L64.3743 161.066L50.811 158.717L95.5866 141.219L94.6945 152.394L105.687 152.6C105.687 152.6 101.477 157.14 97.4714 159.726C96.0149 160.666 92.9017 162.795 86.8382 162.958C80.2153 163.137 68.2864 161.497 68.8509 165.102C70.5167 175.736 74.6015 190.182 74.6015 190.182L70.1543 193.911L67.7754 193.955L62.4788 194.905L62.5625 192.449Z" fill="#1A1A1A"/>
<path id="rect10250-6" d="M68.7582 191.289H64.482C63.324 191.289 62.3853 192.228 62.3853 193.386V197.192C62.3853 198.35 63.324 199.289 64.482 199.289H68.7582C69.9162 199.289 70.855 198.35 70.855 197.192V193.386C70.855 192.228 69.9162 191.289 68.7582 191.289Z" fill="#666666"/>
<path id="rect10250" d="M79.686 187.331H67.8989V201.886H79.686V187.331Z" fill="#373E48"/>
<path id="path10353" d="M62.6889 194.981C62.6889 194.981 46.0514 195.868 40.5553 186.672C36.3703 179.67 34.0724 169.91 37.2994 162.418C41.6537 152.308 64.1001 143.124 64.1001 143.124L100.911 130.003C110.151 126.318 120.161 121.492 116.271 111.55C103.073 89.38 83.672 76.7468 86.588 64.7646C88.1514 59.7879 98.6798 59.2681 102.424 53.3914C109.602 42.1257 107.422 31.2495 115.854 31.3532C155.452 38.4122 179.451 44.4404 187.412 54.4654C194.401 63.2658 190.6 80.2223 203.062 89.979C208.875 94.5306 217.01 95.5452 223.14 93.8626C227.725 92.604 232.016 88.6881 232.016 88.6881" stroke="#373E48" stroke-width="3.64679"/>
<path id="path10246" opacity="0.5" d="M88.0986 40.6564L90.7642 39.8442C90.7642 39.8442 92.0619 39.0615 92.6509 38.5884C93.8408 37.6326 94.2588 36.8448 94.2588 36.8448L101.764 38.7775L102.582 35.7243L88.3345 33.3893L83.72 42.5462L68.5933 50.9175L61.4751 54.1215L66.3995 55.6746L67.7537 58.3117C67.7537 58.3117 75.7703 57.6125 79.1312 55.6432C81.3623 54.3359 84.4154 52.2479 85.9529 49.6375C87.0076 47.8467 87.2866 43.5469 87.2866 43.5469L88.0986 40.6564Z" fill="#333333"/>
<path id="path10248" opacity="0.25" d="M213.494 72.5691L217.339 71.0078L225.504 73.5388L220.745 79.7269L220.869 85.6303L217.282 82.167L219.928 79.2848L213.494 72.5691Z" fill="#1A1A1A"/>
<path id="rect10355" opacity="0.997" d="M228.312 87.1755L227.373 88.0666C226.661 88.742 226.632 89.8663 227.307 90.578L229.667 93.0641C230.342 93.7757 231.466 93.8055 232.178 93.1301L233.117 92.2389C233.829 91.5635 233.858 90.4392 233.183 89.7275L230.823 87.2415C230.148 86.5298 229.024 86.5001 228.312 87.1755Z" fill="#666666"/>
<path id="rect10362" opacity="0.997" d="M86.9107 70.4052L83.9445 72.5068C82.7987 73.3186 82.5279 74.9058 83.3398 76.0516L87.1685 81.4554C87.9803 82.6012 89.5675 82.872 90.7133 82.0602L93.6795 79.9586C94.8252 79.1468 95.096 77.5595 94.2842 76.4138L90.4555 71.0099C89.6437 69.8642 88.0565 69.5934 86.9107 70.4052Z" fill="#666666"/>
<path id="rect10362-6" opacity="0.997" d="M108.035 98.1042L105.068 100.206C103.923 101.018 103.652 102.605 104.464 103.751L108.293 109.155C109.104 110.301 110.691 110.571 111.837 109.759L114.803 107.658C115.949 106.846 116.22 105.259 115.408 104.113L111.579 98.709C110.768 97.5632 109.18 97.2924 108.035 98.1042Z" fill="#666666"/>
<path id="rect10360-6" opacity="0.3" d="M120.415 28.9077L119.056 34.4645C118.722 35.8285 119.558 37.2048 120.922 37.5384L172.239 50.0907C173.603 50.4243 174.98 49.5891 175.313 48.2251L176.672 42.6683C177.006 41.3043 176.171 39.9281 174.807 39.5944L123.489 27.0422C122.125 26.7085 120.749 27.5437 120.415 28.9077Z" fill="#4D4D4D"/>
<path id="rect10360" opacity="0.997" d="M120.255 28.915L118.896 34.4718C118.562 35.8358 119.397 37.212 120.761 37.5457L172.079 50.098C173.443 50.4316 174.819 49.5964 175.153 48.2324L176.512 42.6756C176.846 41.3116 176.01 39.9353 174.646 39.6017L123.329 27.0494C121.965 26.7158 120.588 27.551 120.255 28.915Z" fill="#666666"/>
<path id="path3564" opacity="0.25" d="M87.4009 43.5552C87.4009 43.5552 129.015 74.5414 140.486 96.7882C144.78 105.117 143.461 120.719 143.689 126.137C143.733 127.168 146.124 129.77 146.124 129.77L145.012 136.588L148.363 150.353L144.973 161.601L130.179 169.829L132.323 173.964C132.323 173.964 130.801 174.736 131.129 177.59C131.479 180.637 128.541 183.244 126.485 186.513C120.151 196.586 117.197 206.81 117.197 206.81L123.405 206.865L135.667 173.381L140.599 171.439C140.599 171.439 145.176 168.607 146.985 166.658C149.005 164.483 150.601 161.878 151.78 159.153C152.998 156.337 153.76 153.374 154.042 150.23C154.272 147.681 154.173 144.904 153.618 142.406C153.052 139.867 151.018 135.048 151.018 135.048L149.174 132.245C149.174 132.245 150.737 124.129 151.293 120.037C151.696 117.066 152.058 114.081 152.173 111.085C152.301 107.754 152.287 104.404 151.959 101.087C151.78 99.2615 150.999 95.6682 150.999 95.6682C150.999 95.6682 149.747 91.1399 148.183 89.2815C142.412 82.4235 129.173 71.206 129.173 71.206L90.2651 39.9673L88.2698 40.5632L87.4009 43.5552Z" fill="#333333"/>
</g>
<g id="robot-right">
<path id="rect23344-5-7-4" d="M321.468 152.346L321.563 151.615C321.699 150.564 322.661 149.828 323.711 149.971L327.511 150.49C328.562 150.634 329.303 151.603 329.167 152.654L329.072 153.385C328.936 154.437 327.974 155.173 326.923 155.029L323.124 154.51C322.073 154.367 321.332 153.398 321.468 152.346Z" fill="#808080"/>
<path id="rect23344-7-7" d="M320.302 149.999L321.59 140.053C321.788 138.529 323.182 137.462 324.705 137.67L330.215 138.422C331.738 138.63 332.814 140.035 332.616 141.56L331.328 151.505C331.131 153.029 329.735 154.096 328.212 153.888L322.702 153.136C321.179 152.928 320.105 151.523 320.302 149.999Z" fill="#333333"/>
<path id="rect1717-7-3-6-4-6-6-4" opacity="0.95" d="M451.869 176.248V181.867L443.008 216.552L451.827 216.343V217.597L505.984 217.823V216.588L513.255 216.574L505.984 187.063V176.248H451.869Z" fill="#0B2228"/>
<path id="path2683-9-0-7-7-7-8-7-4" opacity="0.4" d="M477.691 180.205V216.392H470.831L475.018 180.155L477.691 180.205Z" fill="black"/>
<path id="path2705-9-5-5-4-9-3-3" opacity="0.4" d="M503.567 179.016H501.967V217.07H513.652L503.567 179.016Z" fill="black" stroke="black" stroke-width="0.150566"/>
<path id="path2705-1-3-9-3-4-2-6-0" opacity="0.4" d="M454.025 179.594H455.623V217.925H443.939L454.025 179.594Z" fill="black" stroke="black" stroke-width="0.151111"/>
<path id="rect2542-6-2-5-3-6-5-7" d="M450.187 178.952V180.978H451.564L443.151 215.167H441.679V217.956H515.943V215.167H514.426L506.012 180.978H507.339V178.952H450.187ZM453.406 180.978H478.9V215.167H444.992L453.406 180.978ZM481.697 180.978H504.17L512.585 215.167H485.876L481.697 180.978Z" fill="#4D4D4D"/>
<path id="rect3024-2-6-0-6-6-8" d="M440.406 126.243H516.175L499.048 176.65L459.082 176.504L440.406 126.243Z" fill="#FFCC00"/>
<path id="rect3517-2-7-4-3-6" d="M529.747 95.2319H491.449C487.901 95.2319 485.025 101.778 485.025 109.852V119.537C485.025 127.611 487.901 134.157 491.449 134.157H529.747C533.295 134.157 536.172 127.611 536.172 119.537V109.852C536.172 101.778 533.295 95.2319 529.747 95.2319Z" fill="#373E48"/>
<path id="rect3247-7-9-8-9-94-8" d="M441.335 13.9222L422.957 22.996C422.957 22.996 417.61 80.5473 418.602 106.161C419.266 123.295 454.119 139.688 454.119 139.688L489.965 152.527L441.335 13.9222Z" fill="#FFCC00"/>
<path id="path3027-8-1-6-5-8-8" d="M460.617 145.016C473.172 145.016 483.35 134.129 483.35 120.701C483.35 107.272 473.172 96.3858 460.617 96.3858C448.061 96.3858 437.883 107.272 437.883 120.701C437.883 134.129 448.061 145.016 460.617 145.016Z" fill="#373E48"/>
<path id="rect3345-3-2-8-0-1-4" d="M320.954 131.436L322.103 122.621L336.774 124.639L335.625 133.453L320.954 131.436Z" fill="#FFCC00"/>
<path id="rect3347-6-7-8-4-2-3" d="M316.841 135.488L317.456 130.775L339.285 133.777L338.671 138.49L316.841 135.488Z" fill="#1C2224"/>
<path id="rect3347-2-1-0-4-8-93-1" d="M318.154 140.202L318.768 135.488L336.766 137.963L336.152 142.676L318.154 140.202Z" fill="#1C2224"/>
<path id="rect3310-3-0-1-1-9-4" d="M319.706 98.2285C321.84 96.4495 324.4 95.292 327.123 94.876C329.845 94.4599 332.63 94.8004 335.189 95.8622L404.09 38.4118L413.412 50.2055L344.62 107.564C345.168 110.395 344.957 113.322 344.009 116.031C343.061 118.74 341.411 121.129 339.238 122.941C337.667 124.251 335.858 125.229 333.915 125.819C331.973 126.408 329.935 126.598 327.917 126.377C325.899 126.156 323.941 125.529 322.154 124.531C320.368 123.534 318.788 122.185 317.505 120.562C316.223 118.94 315.263 117.075 314.679 115.074C314.096 113.074 313.9 110.977 314.104 108.903C314.309 106.829 314.909 104.819 315.87 102.987C316.831 101.156 318.135 99.5388 319.706 98.2285Z" fill="#FFCC00"/>
<path id="rect3288-1-3-9-2-8-2" d="M427.272 8.45131C430.905 5.49718 436.145 6.12336 439.021 9.8545L448.281 21.8676C451.157 25.599 450.548 30.981 446.916 33.9349L428.835 48.6364C426.048 50.9022 422.318 51.0596 419.433 49.3273L413.653 54.0258L401.055 37.6813L406.639 33.1402C405.253 29.6876 406.19 25.5919 409.191 23.1526L427.272 8.45131Z" fill="#FFCC00"/>
<path id="path3027-2-9-6-2-7-8-0" d="M434.824 51.6676C444.755 51.6676 452.806 43.5637 452.806 33.567C452.806 23.5704 444.755 15.4665 434.824 15.4665C424.893 15.4665 416.842 23.5704 416.842 33.567C416.842 43.5637 424.893 51.6676 434.824 51.6676Z" fill="#373E48"/>
<path id="path3027-2-8-7-9-9-6-4-7-0-9" d="M339.021 117.79C342.875 112.28 341.613 104.577 336.203 100.585C330.793 96.5928 323.282 97.8236 319.428 103.334C315.574 108.844 316.836 116.547 322.246 120.539C327.657 124.531 335.167 123.3 339.021 117.79Z" fill="#373E48"/>
<path id="path10693" opacity="0.2" d="M324.943 131.563L330.143 125.913L336.866 124.629L335.493 133.188L339.324 134.009L338.412 138.488L324.943 131.563Z" fill="#1A1A1A"/>
<path id="path10691" opacity="0.25" d="M490.674 134.112L508.265 139.127L505.07 154.949L510.106 160.862L512.722 165.461L518.347 165.019L518.286 160.077L516.96 157.879L512.258 157.514V153.736L507.135 153.378L513.372 134.328L506.799 130.672L490.942 95.0964L487.077 98.6388L484.818 112.202L485.225 124.721L487.619 132.054L490.674 134.112Z" fill="#1A1A1A"/>
<path id="path10687" opacity="0.2" d="M459.589 176.202L469.777 176.251L458.045 144.498L466.594 133.068L437.774 117C437.774 117 427.597 109.151 425.522 103.418C419.558 86.9475 425.148 48.5731 425.148 48.5731L421.135 45.2298L418.726 85.9904L418.666 110.279L423.89 117.74L429.209 123.272L440.234 131.888L444.677 138.421L459.589 176.202Z" fill="#1A1A1A"/>
<path id="path10695" opacity="0.2" d="M348.636 97.9456L347.983 104.667L346.64 105.985L345.851 103.176L346.203 99.7487L348.636 97.9456Z" fill="#1A1A1A"/>
<path id="path10697" opacity="0.1" d="M443.615 14.6215L435.86 7.58218L432.513 6.54901L429.417 7.19205L424.81 10.4145L411.09 21.5884L407.587 24.6496L405.951 29.8086L413.392 26.7917L421.383 16.6331L434.17 11.881L443.615 14.6215Z" fill="#1A1A1A"/>
<path id="paint-gun" d="M323.048 154.805L313.717 166.962L331.891 169.359L326.021 155.179L323.048 154.805Z" fill="#D40000"/>
<path id="rect10250-6-6" d="M511.814 157.656H516.298C517.512 157.656 518.496 158.64 518.496 159.854V163.844C518.496 165.058 517.512 166.042 516.298 166.042H511.814C510.6 166.042 509.616 165.058 509.616 163.844V159.854C509.616 158.64 510.6 157.656 511.814 157.656Z" fill="#666666"/>
<path id="rect10250-0" d="M500.358 153.506H512.715V168.765H500.358V153.506Z" fill="#373E48"/>
<path id="path10517" d="M332.659 147.596C332.659 147.596 337.293 151.688 347.689 148.682C356.551 145.429 359.852 142.086 354.924 128.197C349.224 114.672 339.84 103.453 346.237 97.4369C359.684 84.7905 381.905 57.7396 399.265 54.1812C405.2 52.9646 406.819 57.6571 422.766 60.8086C436.618 63.5461 441.086 50.7919 447.544 54.2788C453.512 64.493 455.956 80.7654 462.655 90.3592C467.367 98.0386 498.143 85.2124 506.803 91.2597C524.24 103.436 522.76 116.701 531.371 131.078C535.165 137.413 538.729 143.06 539.298 150.423C539.907 158.294 528.706 161.867 528.706 161.867L518.379 161.98" stroke="#373E48" stroke-width="3.82296"/>
<path id="rect10360-6-3" d="M347.73 92.2131L351.612 96.7842C352.565 97.9063 354.247 98.043 355.369 97.0901L397.582 61.2394C398.704 60.2865 398.842 58.6045 397.889 57.4825L394.007 52.9114C393.054 51.7893 391.372 51.6526 390.25 52.6055L348.037 88.4562C346.915 89.4091 346.777 91.0911 347.73 92.2131Z" fill="#666666"/>
<path id="rect10362-6-7" opacity="0.997" d="M459.445 79.2315L456.465 80.0956C455.313 80.4294 454.651 81.6332 454.985 82.7845L456.559 88.2146C456.893 89.3659 458.096 90.0288 459.248 89.695L462.228 88.8308C463.38 88.497 464.043 87.2929 463.709 86.1416L462.135 80.7116C461.801 79.5603 460.596 78.8977 459.445 79.2315Z" fill="#666666"/>
<path id="rect10362-6-7-5" opacity="0.997" d="M452.357 59.4968L449.377 60.361C448.225 60.6948 447.562 61.8988 447.896 63.0501L449.47 68.4802C449.804 69.6315 451.008 70.2941 452.16 69.9603L455.14 69.0962C456.292 68.7624 456.954 67.5586 456.62 66.4073L455.046 60.9772C454.712 59.8259 453.508 59.163 452.357 59.4968Z" fill="#666666"/>
<path id="rect10355-9" opacity="0.997" d="M334.264 145.504L333.157 145.406C332.318 145.331 331.577 145.951 331.502 146.79L331.242 149.723C331.167 150.562 331.788 151.303 332.627 151.377L333.734 151.476C334.574 151.55 335.314 150.93 335.388 150.091L335.649 147.159C335.723 146.319 335.104 145.579 334.264 145.504Z" fill="#666666"/>
</g>
<g id="automovil_two">
<g id="pallet_two">
<path id="path11356-5-6" opacity="0.1" d="M339.464 309.055V310.138C339.386 309.783 339.386 309.412 339.464 309.055Z" fill="black"/>
<path id="rect11745-6-7" d="M537.207 333.404L0.000488281 335.102L0.0399386 348.267L537.246 346.568L537.207 333.404Z" fill="#535D6C"/>
<path id="rect11749-1-4-7-9-3" d="M120.647 290.384L134.85 290.264L144.97 327.276L112.821 327.377L120.647 290.384Z" fill="#373E48"/>
<path id="rect11749-1-4-74-6" d="M438.323 291.594L452.526 291.474L462.647 328.486L430.498 328.588L438.323 291.594Z" fill="#373E48"/>
<path id="rect11749-8-5-9" d="M276.591 310.793L298.108 310.683L313.333 330.966L264.625 331.12L276.591 310.793Z" fill="#373E48"/>
<path id="rect11745-9-2-5" d="M549.581 316.923L34.2515 318.629L34.2891 331.794L549.619 330.088L549.581 316.923Z" fill="#535D6C"/>
<path id="rect11749-1-5-6" d="M425.178 291.646L441.661 291.5L453.417 337.882L416.105 338.001L425.178 291.646Z" fill="#535D6C"/>
<path id="rect11749-3-3" d="M110.493 290.353L126.976 290.206L138.731 336.589L101.42 336.707L110.493 290.353Z" fill="#535D6C"/>
<path id="rect11745-9-2-5-3" opacity="0.15" d="M552.775 314.581L37.4458 316.288L37.4835 329.452L552.813 327.746L552.775 314.581Z" fill="#1C1F24"/>
<path id="rect11749-8-4-4-4" d="M259.413 310.464L285.1 310.319L303.299 341.949L245.152 342.133L259.413 310.464Z" fill="#535D6C"/>
<path id="rect11749-3-3-3" opacity="0.2" d="M112.317 290.791L128.799 290.644L140.555 337.027L103.244 337.145L112.317 290.791Z" fill="#1C1F24"/>
<path id="rect11745-6-7-6" opacity="0.2" d="M538.945 333.167L1.73975 334.865L1.7792 348.03L538.985 346.332L538.945 333.167Z" fill="#1C1F24"/>
<path id="rect11749-8-4-4-4-7" opacity="0.2" d="M261.332 307.867L287.019 307.722L305.218 339.352L247.071 339.536L261.332 307.867Z" fill="#1C1F24"/>
<path id="rect11749-1-5-6-5" opacity="0.2" d="M426.98 290.639L443.463 290.493L455.218 336.875L417.907 336.994L426.98 290.639Z" fill="#1C1F24"/>
</g>
<g id="frame_two">
<g id="g1620">
<path id="path11352-9-6" opacity="0.1" d="M324.365 329.684L324.16 329.72C324.16 329.72 330.575 326.818 324.365 329.684Z" fill="black"/>
<path id="path11356-3-1" opacity="0.1" d="M383.485 352.401L383.612 353.351C383.494 353.052 383.451 352.727 383.485 352.401Z" fill="black"/>
<path id="path11238-5-5" d="M157.143 222.576C157.143 222.576 231.049 176.62 278.962 176.276C278.962 176.276 299.131 178.034 328.648 178.973C347.69 179.579 370.335 177.055 394.919 182.828C457.61 197.55 479.585 218.4 497 212.5L425.046 213.817L157.143 222.576Z" fill="#121C3F"/>
<path id="polygon11242-0-9" d="M150.751 226.934L489.897 233.913L489.701 295.051L67.0278 298.319L78.8095 248.075L150.751 226.934Z" fill="#121C3F"/>
</g>
<path id="bodywork_two" d="M512.049 263.54L511.994 279.547C511.994 279.547 499.413 289.45 498.248 297.137C498.248 297.137 480.263 302.192 475.132 302.231C474.666 302.236 474.158 302.239 473.625 302.3C474.434 299.977 475.069 297.59 475.523 295.161C476.803 288.345 476.666 281.324 475.124 274.604C473.581 267.884 470.671 261.632 466.602 256.299C462.533 250.966 457.407 246.683 451.592 243.761C445.778 240.838 439.421 239.348 432.978 239.398C426.536 239.448 420.17 241.036 414.336 244.049C408.503 247.061 403.349 251.423 399.245 256.82C395.142 262.216 392.191 268.514 390.605 275.258C389.019 282.002 388.838 289.025 390.075 295.822C390.669 299.098 391.589 302.293 392.817 305.351L368.452 305.539C368.452 305.539 368.224 305.624 367.86 305.799C366.551 306.445 363.466 308.15 363.015 310.796L161.094 312.357L156.957 312.35C157.842 310.753 158.636 309.102 159.337 307.404C160.644 304.259 161.619 300.968 162.241 297.595C163.464 291.153 163.422 284.521 162.119 278.127C160.816 271.732 158.281 265.717 154.677 260.468C151.073 255.22 146.48 250.855 141.194 247.656C135.908 244.456 130.046 242.492 123.987 241.891C117.927 241.29 111.804 242.064 106.013 244.165C100.222 246.265 94.8907 249.645 90.3631 254.086C85.8355 258.528 82.2122 263.932 79.7265 269.95C77.2407 275.969 75.9478 282.469 75.9312 289.03C75.9212 292.123 76.1921 295.207 76.7408 298.237C77.6767 303.367 79.4071 308.282 81.8597 312.778C78.9777 312.043 72.6897 309.939 72.6897 309.939C72.6897 309.939 45.8946 307.077 39.0708 300.649L40.1076 299.87L44.5027 296.608L42.5324 288.346C42.2923 287.999 42.0945 287.62 41.9445 287.217C41.417 285.84 40.9577 283.277 42.8478 280.041C45.7125 275.103 44.3446 257.605 44.3446 257.605C44.3446 257.605 83.2238 228.43 159.678 221.382C159.678 221.382 161.5 222.896 165.269 223.185C167.822 223.389 171.269 223.024 175.655 221.259C175.655 221.259 181.917 224.279 208.799 207.485C208.799 207.485 254.545 173.335 314.43 175.954C314.43 175.954 376.046 171.479 428.452 192.9C451.037 202.123 468.227 207.001 480.483 209.555C491.8 211.919 498.91 212.316 502.167 212.329L502.238 212.328C503.302 212.32 503.934 212.315 504.159 212.313L504.257 212.312C504.257 212.312 504.257 219.628 504.566 228.266V228.311C504.686 231.315 504.855 234.478 505.092 237.552V237.743C505.75 246.301 506.907 254.073 508.954 255.598L512.049 263.54Z" fill="#CCCCCC"/>
<g id="g1614">
<path id="path11246-6-9" d="M50.5166 256.857C50.5166 256.857 67.7456 242.284 89.1272 245.194C89.1272 245.194 69.6095 261.937 60.841 260.929L59.3497 259.559L50.4824 260.162C50.4824 260.162 49.1659 257.944 50.5317 256.857H50.5166Z" fill="#121C3F"/>
<path id="path11248-1-0" opacity="0.2" d="M67.1156 281.713L67.0608 290.239C67.0608 290.239 66.443 298.387 59.6156 298.746L40.1069 299.934L44.4965 296.672L42.5254 288.41C42.2842 288.066 42.0871 287.689 41.9382 287.288C43.7173 285.517 47.9058 282.517 56.4075 281.815L67.1156 281.713Z" fill="white"/>
<path id="path11254-3-9" opacity="0.5" d="M265.335 236.458C265.335 236.458 267.061 232.988 269.839 232.89L287.882 231.751C287.882 231.751 287.59 234.44 284.377 235.464L265.335 236.458Z" fill="#ECECEC"/>
<path id="path11256-2-1" opacity="0.5" d="M369.74 229.812C369.74 229.812 371.465 226.342 374.243 226.244L392.286 225.079C392.286 225.079 391.993 227.768 388.781 228.793L369.74 229.812Z" fill="#F2F2F2"/>
<path id="path11258-0-7" d="M308.298 184.411L294.331 223.626L244.419 224.069L231.568 224.168L220.391 224.255L210.726 224.329L199.78 224.414C199.78 224.414 206.465 219.09 217.226 212.29C220.78 210.034 224.812 207.622 229.189 205.194C233.215 202.947 237.549 200.672 242.101 198.51C245.652 196.802 249.394 195.156 253.217 193.617C270.552 186.664 290.024 181.936 308.298 184.411Z" fill="#121C3F"/>
<path id="path11260-6-7" d="M386.628 210.867C386.628 210.867 365.764 214.358 345.854 216.976C338.243 217.978 330.775 218.85 324.662 219.35L323.811 219.42C321.446 219.604 319.252 219.729 317.391 219.782C314.435 219.862 312.225 219.739 311.121 219.365L316.992 181.913C316.992 181.913 324.085 181.941 334.575 182.414L336.868 182.53C339.049 182.647 341.347 182.782 343.746 182.942C347.174 183.17 350.784 183.448 354.507 183.788C372.482 185.426 392.841 188.458 405.72 194.102C433.125 206.127 386.628 210.867 386.628 210.867Z" fill="#121C3F"/>
<path id="path11262-1-1" d="M482.677 228.939L482.629 238.923C482.629 238.923 467.656 239.268 470.876 236.021C472.96 233.866 474.853 231.506 476.531 228.974L482.677 228.939Z" fill="#121C3F"/>
<path id="path11264-5-1" d="M505.081 237.731L492.919 238.85L492.968 226.848C492.968 226.848 498.628 218.279 504.231 227.684L504.553 228.235L505.081 237.731Z" fill="#121C3F"/>
<path id="polygon11304-5-5" opacity="0.2" d="M294.572 223.681L200.111 224.061L189.025 304.493L279.474 301.66L294.572 223.681Z" stroke="white" stroke-width="0.613489" stroke-miterlimit="10"/>
<path id="path11306-4-9" opacity="0.5" d="M367.87 305.773C366.561 306.42 363.476 308.125 363.025 310.77L161.098 312.332L156.96 312.325C157.845 310.728 158.64 309.076 159.341 307.378L367.87 305.773Z" fill="#666666"/>
<path id="path11350-7-7" opacity="0.1" d="M268.675 254.776C268.048 255.732 267.474 256.727 266.957 257.756C263.09 265.675 254.194 252.92 257.3 248.465L259.44 246.303C258.627 256.484 266.321 255.342 268.675 254.776Z" fill="black"/>
<path id="path11352-6-7" opacity="0.1" d="M283.389 272.617L283.184 272.619C283.184 272.619 289.988 270.593 283.389 272.617Z" fill="black"/>
</g>
</g>
<path id="stain_two" d="M296.525 176.902C296.57 178.104 297.478 177.035 297.312 177.763C297.205 178.235 296.288 178.148 296.001 178.565C295.835 178.806 295.825 179.148 295.587 179.438C295.285 179.809 294.985 180.387 295.135 180.716C295.412 181.327 296.38 180.359 297.025 180.542C297.677 180.727 296.947 181.88 297.787 182.049C298.449 182.181 298.295 181.031 299.542 180.688C299.938 180.58 300.348 181.307 300.83 181.258C301.724 181.167 302.083 180.205 302.757 180.266C303.737 180.356 304.444 182.094 305.391 182.975C306.495 184.001 307.82 183.273 308.464 184.162C308.89 184.75 308.387 185.646 308.579 186.336C308.839 187.268 306.976 192.43 306.976 192.43L308.386 201.134C308.386 201.134 311.327 203.956 312.219 203.741C314.148 203.276 315.643 188.012 316.572 184.72L316.988 181.906L324.725 182.027L337.738 182.571L355.508 183.859L379.536 186.94L393.387 189.935L404.587 193.735L410.843 196.754L413.092 198.589C413.092 198.589 413.831 199.409 414.023 199.914C414.261 200.537 414.41 201.253 414.261 201.903C414.118 202.53 413.66 203.06 413.217 203.525C412.805 203.959 411.758 204.57 411.758 204.57L409.667 205.722L406.875 206.873L405.105 207.329L417.944 238.309L500.103 221.505L504.402 221.615L504.497 212.364L501.135 212.307L490.5 211L464.485 205.653L449.5 199.5L436 194.5L413.598 187.502L394.676 182.384L373.287 178.582L363.185 177.356L356.003 176.716L347.131 175.916L325.429 175.597L297.947 176.126C297.947 176.126 296.513 176.527 296.527 176.902H296.525Z" fill="#D40000"/>
</g>
<g id="automovil_one">
<g id="pallet_one">
<path id="path11356-5-6_2" opacity="0.1" d="M339.464 309.055V310.138C339.386 309.783 339.386 309.412 339.464 309.055Z" fill="black"/>
<path id="rect11745-6-7_2" d="M537.207 333.404L0.000488281 335.102L0.0399386 348.267L537.246 346.568L537.207 333.404Z" fill="#535D6C"/>
<path id="rect11749-1-4-7-9-3_2" d="M120.647 290.384L134.85 290.264L144.97 327.276L112.821 327.377L120.647 290.384Z" fill="#373E48"/>
<path id="rect11749-1-4-74-6_2" d="M438.323 291.594L452.526 291.474L462.647 328.486L430.498 328.588L438.323 291.594Z" fill="#373E48"/>
<path id="rect11749-8-5-9_2" d="M276.591 310.793L298.108 310.683L313.333 330.966L264.625 331.12L276.591 310.793Z" fill="#373E48"/>
<path id="rect11745-9-2-5_2" d="M549.581 316.923L34.2515 318.629L34.2891 331.794L549.619 330.088L549.581 316.923Z" fill="#535D6C"/>
<path id="rect11749-1-5-6_2" d="M425.178 291.646L441.661 291.5L453.417 337.882L416.105 338.001L425.178 291.646Z" fill="#535D6C"/>
<path id="rect11749-3-3_2" d="M110.493 290.353L126.976 290.206L138.731 336.589L101.42 336.707L110.493 290.353Z" fill="#535D6C"/>
<path id="rect11745-9-2-5-3_2" opacity="0.15" d="M552.775 314.581L37.4458 316.288L37.4835 329.452L552.813 327.746L552.775 314.581Z" fill="#1C1F24"/>
<path id="rect11749-8-4-4-4_2" d="M259.413 310.464L285.1 310.319L303.299 341.949L245.152 342.133L259.413 310.464Z" fill="#535D6C"/>
<path id="rect11749-3-3-3_2" opacity="0.2" d="M112.317 290.791L128.799 290.644L140.555 337.027L103.244 337.145L112.317 290.791Z" fill="#1C1F24"/>
<path id="rect11745-6-7-6_2" opacity="0.2" d="M538.945 333.167L1.73975 334.865L1.7792 348.03L538.985 346.332L538.945 333.167Z" fill="#1C1F24"/>
<path id="rect11749-8-4-4-4-7_2" opacity="0.2" d="M261.332 307.867L287.019 307.722L305.218 339.352L247.071 339.536L261.332 307.867Z" fill="#1C1F24"/>
<path id="rect11749-1-5-6-5_2" opacity="0.2" d="M426.98 290.639L443.463 290.493L455.218 336.875L417.907 336.994L426.98 290.639Z" fill="#1C1F24"/>
</g>
<g id="frame_one">
<g id="g1620_2">
<path id="path11352-9-6_2" opacity="0.1" d="M324.365 329.684L324.16 329.72C324.16 329.72 330.575 326.818 324.365 329.684Z" fill="black"/>
<path id="path11356-3-1_2" opacity="0.1" d="M383.485 352.401L383.612 353.351C383.494 353.052 383.451 352.727 383.485 352.401Z" fill="black"/>
<path id="path11238-5-5_2" d="M157.143 222.576C157.143 222.576 231.049 176.62 278.962 176.276C278.962 176.276 299.131 178.034 328.648 178.973C347.69 179.579 370.335 177.055 394.919 182.828C457.61 197.55 479.585 218.4 497 212.5L425.046 213.817L157.143 222.576Z" fill="#121C3F"/>
<path id="polygon11242-0-9_2" d="M150.751 226.934L489.897 233.913L489.701 295.051L67.0278 298.319L78.8095 248.075L150.751 226.934Z" fill="#121C3F"/>
</g>
<path id="bodywork_one" d="M512.049 263.54L511.994 279.547C511.994 279.547 499.413 289.45 498.248 297.137C498.248 297.137 480.263 302.192 475.132 302.231C474.666 302.236 474.158 302.239 473.625 302.3C474.434 299.977 475.069 297.59 475.523 295.161C476.803 288.345 476.666 281.324 475.124 274.604C473.581 267.884 470.671 261.632 466.602 256.299C462.533 250.966 457.407 246.683 451.592 243.761C445.778 240.838 439.421 239.348 432.978 239.398C426.536 239.448 420.17 241.036 414.336 244.049C408.503 247.061 403.349 251.423 399.245 256.82C395.142 262.216 392.191 268.514 390.605 275.258C389.019 282.002 388.838 289.025 390.075 295.822C390.669 299.098 391.589 302.293 392.817 305.351L368.452 305.539C368.452 305.539 368.224 305.624 367.86 305.799C366.551 306.445 363.466 308.15 363.015 310.796L161.094 312.357L156.957 312.35C157.842 310.753 158.636 309.102 159.337 307.404C160.644 304.259 161.619 300.968 162.241 297.595C163.464 291.153 163.422 284.521 162.119 278.127C160.816 271.732 158.281 265.717 154.677 260.468C151.073 255.22 146.48 250.855 141.194 247.656C135.908 244.456 130.046 242.492 123.987 241.891C117.927 241.29 111.804 242.064 106.013 244.165C100.222 246.265 94.8907 249.645 90.3631 254.086C85.8355 258.528 82.2122 263.932 79.7265 269.95C77.2407 275.969 75.9478 282.469 75.9312 289.03C75.9212 292.123 76.1921 295.207 76.7408 298.237C77.6767 303.367 79.4071 308.282 81.8597 312.778C78.9777 312.043 72.6897 309.939 72.6897 309.939C72.6897 309.939 45.8946 307.077 39.0708 300.649L40.1076 299.87L44.5027 296.608L42.5324 288.346C42.2923 287.999 42.0945 287.62 41.9445 287.217C41.417 285.84 40.9577 283.277 42.8478 280.041C45.7125 275.103 44.3446 257.605 44.3446 257.605C44.3446 257.605 83.2238 228.43 159.678 221.382C159.678 221.382 161.5 222.896 165.269 223.185C167.822 223.389 171.269 223.024 175.655 221.259C175.655 221.259 181.917 224.279 208.799 207.485C208.799 207.485 254.545 173.335 314.43 175.954C314.43 175.954 376.046 171.479 428.452 192.9C451.037 202.123 468.227 207.001 480.483 209.555C491.8 211.919 498.91 212.316 502.167 212.329L502.238 212.328C503.302 212.32 503.934 212.315 504.159 212.313L504.257 212.312C504.257 212.312 504.257 219.628 504.566 228.266V228.311C504.686 231.315 504.855 234.478 505.092 237.552V237.743C505.75 246.301 506.907 254.073 508.954 255.598L512.049 263.54Z" fill="#CCCCCC"/>
<g id="g1614_2">
<path id="path11246-6-9_2" d="M50.5166 256.857C50.5166 256.857 67.7456 242.284 89.1272 245.194C89.1272 245.194 69.6095 261.937 60.841 260.929L59.3497 259.559L50.4824 260.162C50.4824 260.162 49.1659 257.944 50.5317 256.857H50.5166Z" fill="#121C3F"/>
<path id="path11248-1-0_2" opacity="0.2" d="M67.1156 281.713L67.0608 290.239C67.0608 290.239 66.443 298.387 59.6156 298.746L40.1069 299.934L44.4965 296.672L42.5254 288.41C42.2842 288.066 42.0871 287.689 41.9382 287.288C43.7173 285.517 47.9058 282.517 56.4075 281.815L67.1156 281.713Z" fill="white"/>
<path id="path11254-3-9_2" opacity="0.5" d="M265.335 236.458C265.335 236.458 267.061 232.988 269.839 232.89L287.882 231.751C287.882 231.751 287.59 234.44 284.377 235.464L265.335 236.458Z" fill="#ECECEC"/>
<path id="path11256-2-1_2" opacity="0.5" d="M369.74 229.812C369.74 229.812 371.465 226.342 374.243 226.244L392.286 225.079C392.286 225.079 391.993 227.768 388.781 228.793L369.74 229.812Z" fill="#F2F2F2"/>
<path id="path11258-0-7_2" d="M308.298 184.411L294.331 223.626L244.419 224.069L231.568 224.168L220.391 224.255L210.726 224.329L199.78 224.414C199.78 224.414 206.465 219.09 217.226 212.29C220.78 210.034 224.812 207.622 229.189 205.194C233.215 202.947 237.549 200.672 242.101 198.51C245.652 196.802 249.394 195.156 253.217 193.617C270.552 186.664 290.024 181.936 308.298 184.411Z" fill="#121C3F"/>
<path id="path11260-6-7_2" d="M386.628 210.867C386.628 210.867 365.764 214.358 345.854 216.976C338.243 217.978 330.775 218.85 324.662 219.35L323.811 219.42C321.446 219.604 319.252 219.729 317.391 219.782C314.435 219.862 312.225 219.739 311.121 219.365L316.992 181.913C316.992 181.913 324.085 181.941 334.575 182.414L336.868 182.53C339.049 182.647 341.347 182.782 343.746 182.942C347.174 183.17 350.784 183.448 354.507 183.788C372.482 185.426 392.841 188.458 405.72 194.102C433.125 206.127 386.628 210.867 386.628 210.867Z" fill="#121C3F"/>
<path id="path11262-1-1_2" d="M482.677 228.939L482.629 238.923C482.629 238.923 467.656 239.268 470.876 236.021C472.96 233.866 474.853 231.506 476.531 228.974L482.677 228.939Z" fill="#121C3F"/>
<path id="path11264-5-1_2" d="M505.081 237.731L492.919 238.85L492.968 226.848C492.968 226.848 498.628 218.279 504.231 227.684L504.553 228.235L505.081 237.731Z" fill="#121C3F"/>
<path id="polygon11304-5-5_2" opacity="0.2" d="M294.572 223.681L200.111 224.061L189.025 304.493L279.474 301.66L294.572 223.681Z" stroke="white" stroke-width="0.613489" stroke-miterlimit="10"/>
<path id="path11306-4-9_2" opacity="0.5" d="M367.87 305.773C366.561 306.42 363.476 308.125 363.025 310.77L161.098 312.332L156.96 312.325C157.845 310.728 158.64 309.076 159.341 307.378L367.87 305.773Z" fill="#666666"/>
<path id="path11350-7-7_2" opacity="0.1" d="M268.675 254.776C268.048 255.732 267.474 256.727 266.957 257.756C263.09 265.675 254.194 252.92 257.3 248.465L259.44 246.303C258.627 256.484 266.321 255.342 268.675 254.776Z" fill="black"/>
<path id="path11352-6-7_2" opacity="0.1" d="M283.389 272.617L283.184 272.619C283.184 272.619 289.988 270.593 283.389 272.617Z" fill="black"/>
</g>
</g>
<path id="stain_one" d="M296.525 176.902C296.57 178.104 297.478 177.035 297.312 177.763C297.205 178.235 296.288 178.148 296.001 178.565C295.835 178.806 295.825 179.148 295.587 179.438C295.285 179.809 294.985 180.387 295.135 180.716C295.412 181.327 296.38 180.359 297.025 180.542C297.677 180.727 296.947 181.88 297.787 182.049C298.449 182.181 298.295 181.031 299.542 180.688C299.938 180.58 300.348 181.307 300.83 181.258C301.724 181.167 302.083 180.205 302.757 180.266C303.737 180.356 304.444 182.094 305.391 182.975C306.495 184.001 307.82 183.273 308.464 184.162C308.89 184.75 308.387 185.646 308.579 186.336C308.839 187.268 306.976 192.43 306.976 192.43L308.386 201.134C308.386 201.134 311.327 203.956 312.219 203.741C314.148 203.276 315.643 188.012 316.572 184.72L316.988 181.906L324.725 182.027L337.738 182.571L355.508 183.859L379.536 186.94L393.387 189.935L404.587 193.735L410.843 196.754L413.092 198.589C413.092 198.589 413.831 199.409 414.023 199.914C414.261 200.537 414.41 201.253 414.261 201.903C414.118 202.53 413.66 203.06 413.217 203.525C412.805 203.959 411.758 204.57 411.758 204.57L409.667 205.722L406.875 206.873L405.105 207.329L417.944 238.309L500.103 221.505L504.402 221.615L504.497 212.364L501.135 212.307L490.5 211L464.485 205.653L449.5 199.5L436 194.5L413.598 187.502L394.676 182.384L373.287 178.582L363.185 177.356L356.003 176.716L347.131 175.916L325.429 175.597L297.947 176.126C297.947 176.126 296.513 176.527 296.527 176.902H296.525Z" fill="#D40000"/>
</g>
<g id="me">
<path id="path10699" d="M160.932 423.031C181.875 423.031 198.853 416.233 198.853 407.848C198.853 399.463 181.875 392.665 160.932 392.665C139.989 392.665 123.011 399.463 123.011 407.848C123.011 416.233 139.989 423.031 160.932 423.031Z" fill="#CCCCCC"/>
<path id="path9189-7" d="M171.456 156.134C171.456 156.134 173.573 167.356 172.091 168.203C170.894 168.956 169.761 169.805 168.703 170.744L172.515 176.038L181.62 177.943L190.301 169.897V161.851C190.301 161.851 187.76 157.828 188.184 155.287C188.607 152.746 171.456 156.134 171.456 156.134Z" fill="#DEAA87"/>
<path id="path9193-8" d="M156.845 175.402L155.575 176.038C155.575 176.038 152.822 177.096 151.551 186.201C150.281 195.306 147.317 217.116 148.163 217.751C149.01 218.387 148.587 222.621 148.587 222.621L154.939 189.378L156.845 175.402Z" fill="#2F2E41"/>
<path id="polygon9197-6" d="M167.221 389.9L168.28 379.524H175.903L180.349 389.264L171.668 392.229L167.221 389.9Z" fill="#FBBEBE"/>
<path id="path9199-8" d="M171.88 387.782C171.88 387.782 164.892 383.547 163.622 385.029C162.351 386.511 152.187 397.31 152.187 397.31C152.187 397.31 136.518 405.78 148.588 407.051C160.657 408.321 180.349 399.639 180.349 399.639C180.349 399.639 181.408 388.205 180.561 387.994C179.714 387.782 176.114 389.899 174.42 389.264C173.485 388.94 172.622 388.437 171.88 387.782Z" fill="black"/>
<path id="polygon9201-8" d="M178.443 387.147L187.336 389.899V398.581L175.902 396.04L178.443 387.147Z" fill="#FBBEBE"/>
<path id="path9203-4" d="M175.691 392.864C175.691 392.864 187.337 390.958 188.395 396.675C189.454 402.392 192.207 410.862 189.454 412.979C186.701 415.097 172.515 417.85 172.303 414.25C172.091 410.65 173.785 403.663 173.785 403.663C173.785 403.663 174.844 398.157 174.209 396.675C173.573 395.193 175.691 392.864 175.691 392.864Z" fill="black"/>
<path id="path9205-3" d="M152.429 249.882C152.429 249.882 142.87 310.495 150.705 340.139C158.539 369.784 164.044 387.358 164.044 387.358C164.044 387.358 178.8 391.065 178.8 388.524C178.8 385.983 172.302 340.775 171.032 337.175C169.761 333.575 167.644 332.305 169.55 329.34C171.456 326.376 174.632 307.319 174.632 307.319C174.632 307.319 181.619 338.869 182.043 339.716C182.466 340.563 176.57 392.968 176.57 392.968C176.57 392.968 190.636 399.196 191.481 391.593C191.693 389.687 201.947 322.141 201.947 321.294C201.947 320.447 205.758 255.653 199.618 252.477C193.477 249.301 152.429 249.882 152.429 249.882Z" fill="#162D50"/>
<path id="path9209-1" d="M176.537 174.556V173.073L172.303 166.086C172.303 166.086 168.068 166.509 167.432 168.415C166.797 170.321 159.598 185.566 159.598 185.566L151.975 253.96C151.975 253.96 172.938 259.041 176.114 255.442C179.29 251.842 191.36 173.497 191.36 173.497L193.053 163.968C193.053 163.968 190.145 159.733 189.482 160.369C188.819 161.004 177.808 173.285 177.808 173.285L177.596 175.191L176.537 174.556Z" fill="#162D50"/>
<path id="path9211-4" d="M172.197 164.709C172.197 164.709 168.279 163.756 167.009 166.086C165.738 168.415 165.738 169.262 164.468 170.109C163.197 170.956 155.786 174.767 155.363 176.249C154.939 177.732 145.834 224.527 145.834 224.527C145.834 224.527 141.388 238.502 143.505 248.031C145.623 257.559 144.14 259.465 148.587 260.312C153.034 261.159 153.669 261.159 153.669 259.888C153.669 258.618 159.386 215.634 163.409 212.669C167.432 209.705 166.374 177.308 166.374 177.308C166.374 177.308 172.091 170.321 172.091 169.262C172.091 168.203 173.044 164.63 172.197 164.709Z" fill="#0044AA"/>
<path id="path9213-9" d="M184.16 172.438C184.751 172.537 192.841 162.063 193.477 162.486C194.112 162.91 197.288 168.415 197.712 168.415C198.135 168.415 216.133 172.862 217.616 181.12C219.098 189.378 207.24 215.634 207.24 215.634C207.24 215.634 202.158 230.668 203.217 237.232C203.935 242.23 203.792 247.315 202.794 252.266C202.37 253.96 200.888 255.865 201.311 256.712C201.735 257.559 191.994 255.653 187.971 257.983C183.948 260.312 165.95 262.006 167.009 259.465C168.067 256.924 168.703 246.972 171.667 236.385C174.631 225.798 182.254 200.812 180.984 199.118C179.713 197.424 182.889 172.226 184.16 172.438Z" fill="#0044AA"/>
<path id="path9215-2" d="M215.075 178.579L217.828 181.12C217.828 181.12 221.004 186.625 220.581 189.166C220.157 191.707 229.474 230.032 225.663 231.303C221.851 232.573 212.746 238.926 211.687 240.62C210.629 242.314 208.088 245.278 206.394 246.125C204.7 246.972 203.006 248.454 201.947 247.607C200.888 246.76 198.559 229.397 200.253 228.762C201.947 228.127 203.641 226.221 205.335 226.221C207.029 226.221 208.088 224.527 208.088 223.045C208.088 221.563 206.817 212.669 206.817 212.669L204.065 191.707L215.075 178.579Z" fill="#162D50"/>
<path id="rect227-3-96-9-6-0" d="M181.426 124.031C186.928 124.032 191.295 131.041 191.357 139.727L191.371 141.737C191.387 141.736 191.403 141.736 191.419 141.737C191.586 141.737 191.752 141.817 191.907 141.973C192.062 142.129 192.202 142.357 192.321 142.645C192.439 142.933 192.533 143.275 192.598 143.651C192.662 144.028 192.695 144.431 192.695 144.838C192.695 145.246 192.662 145.649 192.598 146.025C192.534 146.402 192.439 146.744 192.321 147.032C192.202 147.32 192.062 147.548 191.907 147.704C191.752 147.86 191.586 147.94 191.419 147.94C191.468 156.611 186.529 163.706 181.035 163.706H177.08C171.774 163.706 166.819 155.49 166.469 147.113C166.41 147.133 166.35 147.144 166.29 147.144C166.122 147.144 165.956 147.064 165.801 146.908C165.647 146.752 165.506 146.524 165.388 146.236C165.269 145.948 165.175 145.606 165.111 145.229C165.047 144.853 165.014 144.45 165.014 144.042C165.014 143.635 165.047 143.232 165.111 142.855C165.175 142.479 165.269 142.137 165.388 141.849C165.506 141.561 165.647 141.333 165.801 141.177C165.956 141.021 166.122 140.941 166.29 140.941C166.342 140.941 166.394 140.949 166.446 140.964L166.445 139.729C166.436 131.043 170.875 124.034 176.377 124.034H181.429L181.426 124.031Z" fill="#DEAA87"/>
<path id="path358-7-21-8-1-6" opacity="0.6" d="M166.139 144.254C165.987 144.239 165.904 143.725 165.955 143.105C166.006 142.485 166.171 141.994 166.323 142.008C166.475 142.023 166.557 142.537 166.507 143.157C166.456 143.777 166.291 144.268 166.139 144.254Z" fill="black"/>
<path id="path358-2-3-2-8-5-8" opacity="0.6" d="M191.715 145.287C191.867 145.272 191.949 144.758 191.898 144.138C191.847 143.518 191.683 143.027 191.531 143.041C191.378 143.056 191.296 143.57 191.347 144.19C191.398 144.81 191.563 145.301 191.715 145.287Z" fill="black"/>
<path id="path2204-7-5-2-0-5-5-9" d="M178.779 122.648C185.706 122.648 190.937 129.093 191.346 137.07L191.522 140.5C191.433 142.753 191.532 142.727 191.532 144.645C191.532 146.562 191.532 146.604 191.496 148.304L191.165 151.086C190.969 152.73 190.214 155.589 189.221 157.468C188.38 159.057 187.227 160.486 185.646 161.905C183.46 163.65 182.829 164.012 180.921 163.97L176.997 163.883C175.654 163.805 173.061 162.585 171.556 160.724C169.972 158.769 170.499 159.444 169.618 158.081C168.351 156.121 166.274 152.275 166.274 148.883V148.657C166.318 146.382 166.302 146.385 166.302 144.534C166.302 142.682 166.302 142.682 166.274 141.064V137.07C166.274 129.08 171.851 122.648 178.778 122.648H178.779ZM180.802 131.373L176.771 131.602L171.679 131.507L169.959 132.997L169.699 135.378L169.109 137.775L167.453 139.52L167.051 142.004L167.107 149.715L167.54 152.348L168.881 155.154L171.112 158.789L173.269 161.195L175.502 162.551L177.064 162.673C177.576 162.471 178.688 159.826 178.72 158.662L179.233 158.648C179.431 159.329 179.444 161.985 180.293 162.669L182.616 162.59L184.352 161.25L187.325 158.769L188.428 157.001L189.49 154.583L190.225 152.222L190.706 149.431L190.632 141.728L189.617 138.578L188.503 136.975C188.368 136.071 188.412 135.466 188.391 134.792C188.378 134.37 188.362 133.434 188.21 133.009C188.082 132.649 187.745 132.619 187.745 132.619C187.362 132.455 187.462 132.257 187.057 132.108C186.828 132.025 186.6 131.951 186.371 131.886C184.719 131.417 183.021 131.402 180.802 131.373Z" fill="#333333"/>
<path id="path260-52-3-8-4-2" d="M182.933 146.088C182.423 146.088 182.01 145.625 182.01 145.054C182.01 144.482 182.423 144.019 182.933 144.019C183.442 144.019 183.855 144.482 183.855 145.054C183.855 145.625 183.442 146.088 182.933 146.088Z" fill="black"/>
<path id="path260-5-6-1-4-7-6" d="M175.516 145.968C175.006 145.968 174.593 145.505 174.593 144.934C174.593 144.363 175.006 143.9 175.516 143.9C176.025 143.9 176.438 144.363 176.438 144.934C176.438 145.505 176.025 145.968 175.516 145.968Z" fill="black"/>
<path id="rect277-5-1-3-6-6" d="M177.853 152.172H180.802C180.873 152.172 180.931 152.23 180.931 152.301V152.503C180.931 152.574 180.873 152.632 180.802 152.632H177.853C177.782 152.632 177.724 152.574 177.724 152.503V152.301C177.724 152.23 177.782 152.172 177.853 152.172Z" fill="black"/>
<path id="rect277-6-8-90-7-5-4" d="M180.451 141.322H184.818C184.969 141.322 185.091 141.445 185.091 141.596V142.021C185.091 142.172 184.969 142.295 184.818 142.295H180.451C180.3 142.295 180.177 142.172 180.177 142.021V141.596C180.177 141.445 180.3 141.322 180.451 141.322Z" fill="black"/>
<path id="rect277-6-2-7-5-1-6-9" d="M173.395 141.204H177.747C177.902 141.204 178.028 141.33 178.028 141.485V141.922C178.028 142.078 177.902 142.203 177.747 142.203H173.395C173.24 142.203 173.114 142.078 173.114 141.922V141.485C173.114 141.33 173.24 141.204 173.395 141.204Z" fill="black"/>
<g id="g356-9-6-3-9-5">
<path id="path309-1-6-7-8-3-0" d="M183.712 154.76C183.71 155.732 183.246 156.663 182.421 157.35C181.596 158.037 180.478 158.423 179.312 158.423C178.146 158.423 177.028 158.037 176.203 157.35C175.378 156.663 174.914 155.732 174.912 154.76H183.712Z" fill="#F2F2F2"/>
<path id="path309-0-7-0-7-4" d="M183.408 154.857C183.407 155.717 182.969 156.541 182.192 157.149C181.414 157.756 180.361 158.098 179.262 158.098C178.163 158.098 177.109 157.756 176.332 157.149C175.555 156.541 175.117 155.717 175.116 154.857H183.408Z" fill="white"/>
</g>
<path id="path536-4-4-9-4-8" d="M183.337 154.288C183.299 154.267 183.326 154.174 183.337 154.161C183.528 153.913 183.914 154.027 184.196 154.268C184.514 154.541 184.451 154.946 184.284 155.284C184.273 155.309 184.064 155.623 183.996 155.484C183.965 155.419 184.13 154.941 184.134 154.903C184.16 154.588 184.18 154.722 184.052 154.436C183.82 154.27 183.691 154.249 183.441 154.288H183.337Z" fill="#808080"/>
<path id="path536-1-1-0-7-5-7" d="M175.189 154.376C175.227 154.355 175.22 154.266 175.209 154.252C175.018 154.005 174.652 154.081 174.37 154.322C174.052 154.595 174.047 154.939 174.214 155.277C174.225 155.302 174.399 155.408 174.42 155.393C174.474 155.35 174.376 155.088 174.369 155.05C174.309 154.729 174.309 154.733 174.549 154.527C174.765 154.342 174.836 154.347 175.086 154.386L175.189 154.376Z" fill="#808080"/>
<path id="rect227-4-87-3-4-6-9-2-1" d="M182.016 121.28C187.324 121.281 191.656 127.267 192.608 135.193H165.916C166.83 127.266 171.22 121.28 176.528 121.28H182.016Z" fill="#0044AA"/>
<path id="rect2762-4-93-7-4-9-5-7" d="M178.036 119.314H180.295C180.87 119.314 181.336 119.78 181.336 120.355V121.755C181.336 122.33 180.87 122.796 180.295 122.796H178.036C177.461 122.796 176.995 122.33 176.995 121.755V120.355C176.995 119.78 177.461 119.314 178.036 119.314Z" fill="#0044AA"/>
<path id="rect2762-4-9-34-6-7-3-4-2" d="M170.911 121.124H172.533C173.009 121.124 173.395 121.51 173.395 121.986V126.373C173.395 126.849 173.009 127.235 172.533 127.235H170.911C170.435 127.235 170.049 126.849 170.049 126.373V121.986C170.049 121.51 170.435 121.124 170.911 121.124Z" fill="#0044AA"/>
<path id="rect2762-4-9-9-6-3-48-2-7-7" d="M185.712 121.053H187.735C188.1 121.053 188.396 121.349 188.396 121.714V126.502C188.396 126.867 188.1 127.163 187.735 127.163H185.712C185.347 127.163 185.051 126.867 185.051 126.502V121.714C185.051 121.349 185.347 121.053 185.712 121.053Z" fill="#0044AA"/>
<path id="path3300-1-1-5-4-4-2" opacity="0.61" d="M192.797 135.107L186.512 131.998H172.58L166.067 135.145L192.797 135.107Z" fill="#002255"/>
<path id="path3691-6-5-7-8-3-4-2" opacity="0.65" d="M167 140.548L169.419 141.971H169.428C170.022 141.686 170.949 141.633 171.997 141.634C172.598 141.634 173.238 141.652 173.876 141.652C175.561 141.652 176.963 142.023 177.723 142.746C177.723 142.746 178.357 143.122 178.704 143.206C178.875 143.247 179.056 143.249 179.229 143.222C179.583 143.167 180.252 142.864 180.252 142.864C181.395 142.084 182.819 141.715 184.156 141.703C184.795 141.703 185.435 141.686 186.036 141.685C187.063 141.684 187.975 141.734 188.57 142.005L190.624 141.703L190.639 142.075L189.287 143.104C189.263 144.741 187.6 146.705 185.137 147.366C184.165 147.627 182.833 147.466 182.067 147.294C181.282 147.117 180.694 146.523 180.267 145.974C180.109 145.771 179.95 145.366 179.84 144.977C179.74 144.626 179.559 144.422 179.318 144.291C179.138 144.194 178.902 144.174 178.72 144.267C178.491 144.384 178.37 144.575 178.247 144.926C178.149 145.203 177.88 145.776 177.765 145.924C177.338 146.473 176.75 147.066 175.965 147.243C175.199 147.416 173.867 147.577 172.895 147.315C170.862 146.77 169.375 145.337 168.904 143.933L167.01 141.316L167 140.548Z" fill="white"/>
<path id="rect6284-3-7-3-6" opacity="0.999" d="M195.883 166.166L197.781 168.412L200.717 169.027L195.836 195.204L190.519 257.052L186.619 258.64L184.299 259.24L190.142 196.163L195.883 166.166Z" fill="#B3B3B3"/>
<path id="rect6284-3-7-3-0-1" opacity="0.999" d="M160.627 172.299L162.143 171.474L165.314 169.161L158.406 197.119L149.905 260.519L148.522 260.354L146.895 259.833L154.82 197.084L160.627 172.299Z" fill="#B3B3B3"/>
</g>
</g>
</svg>
