<svg width="46" height="53" viewBox="0 0 46 53" fill="none" xmlns="http://www.w3.org/2000/svg">
<g clip-path="url(#clip0)">
<path d="M17.7954 16.6703C17.7954 16.6703 19.0249 25.6231 17.1334 26.6279C15.2419 27.6328 28.388 27.7242 28.388 27.7242C28.388 27.7242 25.4561 19.9591 26.7801 17.5839L17.7954 16.6703Z" fill="#DEAA87"/>
<path d="M37.9873 27.7695L36.894 32.5784L34.5823 42.7524L34.513 43.3095L33.7153 49.76L29.8903 49.6132L33.3278 51.0795C31.1642 52.1536 31.7453 51.1901 31.7453 51.1901C31.7453 51.1901 29.0367 51.3321 27.8609 51.3366C21.4684 48.7739 27.6632 51.2285 22.57 51.3577L11.1479 52.2076L10.6556 48.8304L11.0336 42.2934C10.9144 42.0138 10.8145 41.7262 10.7347 41.4336C10.1828 39.5375 9.51276 35.7512 8.99893 32.5762C8.58536 30.0209 8.27478 27.8616 8.20916 27.4022C8.20186 27.3427 8.19458 27.311 8.19458 27.311L18.1718 23.0524C18.8809 24.6408 22.1919 25.1183 22.1919 25.1183C24.9349 24.9359 27.0851 23.5385 27.0851 23.5385L37.9873 27.7695Z" fill="#D0CDE1"/>
<path d="M45.0805 49.8775C44.4158 50.5734 42.5485 51.0879 40.5518 52.2227C39.809 52.6446 38.9652 51.0138 38.1586 51.4457C36.2337 52.477 36.9614 50.6963 35.2985 51.5215C33.1349 52.5956 33.5205 50.725 33.5205 50.725C33.5205 50.725 31.2096 51.9758 30.9922 51.1404C30.7012 50.0216 28.8366 52.8909 28.3796 52.2506C28.3078 49.5798 27.769 51.0271 27.1878 52.2509C27.0547 52.0818 27.0788 50.4123 26.9468 50.4123L33.7153 49.76L36.5692 48.0507L34.5131 43.3096L31.9343 37.3624L33.4908 32.5784L35.0554 27.7695H37.9873C37.9873 27.7695 38.9582 29.8165 40.1998 32.671C40.385 33.0981 40.5769 33.5428 40.7721 34.0022C43.3261 40.0026 46.5101 48.3816 45.0805 49.8774V49.8775Z" fill="#D0CDE1"/>
<path d="M15.4516 52.0336C16.8995 49.6291 14.5062 52.4645 14.2687 52.5033C12.2285 52.8418 12.8604 51.0989 12.6892 52.2938C12.6345 52.6586 11.2445 51.9821 11.258 52.3505L10.4582 52.4808L8.45481 52.4667C6.87431 51.9345 7.45062 52.616 6.22951 51.5006C5.1702 50.5161 3.30017 51.9723 2.47433 50.7972C1.65189 49.6393 0.918728 48.4246 0.280684 47.1628C-0.079516 46.45 -0.0937157 45.6194 0.242022 44.8956L2.47394 40.091L5.73607 33.0688C5.76159 32.9019 5.78638 32.7381 5.81518 32.5785C6.46212 28.9954 8.19519 27.4044 8.19519 27.4044H9.51929L10.4049 32.5785L11.5054 39.0066L10.7341 41.4359L8.95225 47.0462L10.6552 48.8326L15.4516 52.0336Z" fill="#D0CDE1"/>
<path d="M44.3975 50.9886V51.5089C44.3978 51.6518 44.3703 51.7935 44.3166 51.9266C44.2927 51.9859 44.264 52.0433 44.2305 52.0981C44.1247 52.2695 43.9747 52.4115 43.795 52.5101C43.6154 52.6087 43.4122 52.6605 43.2056 52.6604H3.57782C3.37118 52.6605 3.16805 52.6087 2.98837 52.5101C2.80869 52.4115 2.65861 52.2696 2.55285 52.0981C2.5194 52.0433 2.4906 51.9859 2.46679 51.9266C2.41316 51.7934 2.38585 51.6518 2.38623 51.5089V50.9886C2.3862 50.8374 2.41697 50.6877 2.47686 50.548C2.53674 50.4083 2.62452 50.2814 2.7352 50.1745C2.84588 50.0676 2.97727 49.9828 3.12188 49.925C3.26649 49.8671 3.42148 49.8374 3.57799 49.8374H5.86221V49.5948C5.86221 49.5821 5.86748 49.5699 5.87678 49.5609C5.88608 49.552 5.89868 49.5469 5.91183 49.5469H7.10358C7.11673 49.5469 7.12933 49.552 7.13863 49.5609C7.14793 49.5699 7.15314 49.5821 7.15315 49.5948V49.8374H7.89764V49.5948C7.89765 49.5821 7.90287 49.5699 7.91216 49.5609C7.92146 49.552 7.93406 49.5469 7.94721 49.5469H9.13902C9.14559 49.5468 9.15212 49.548 9.15821 49.5504C9.16431 49.5527 9.16989 49.5562 9.17457 49.5607C9.17925 49.5651 9.18293 49.5705 9.18547 49.5763C9.18801 49.5822 9.18936 49.5885 9.18937 49.5948V49.8374H9.93481V49.5948C9.93481 49.5821 9.94003 49.5699 9.94933 49.5609C9.95862 49.552 9.97122 49.5469 9.98437 49.5469H11.1762C11.1893 49.5469 11.2019 49.552 11.2112 49.5609C11.2205 49.5699 11.2257 49.5821 11.2257 49.5948V49.8374H11.9703V49.5948C11.9703 49.5821 11.9756 49.5699 11.9849 49.5609C11.9942 49.552 12.0068 49.5469 12.0199 49.5469H13.2117C13.2249 49.5469 13.2375 49.552 13.2468 49.5609C13.2561 49.5699 13.2613 49.5821 13.2613 49.5948V49.8374H14.0058V49.5948C14.0059 49.5821 14.0111 49.5699 14.0204 49.5609C14.0297 49.552 14.0423 49.5469 14.0554 49.5469H15.2472C15.2603 49.5469 15.273 49.552 15.2823 49.5609C15.2916 49.5699 15.2968 49.5821 15.2968 49.5948V49.8374H16.0423V49.5948C16.0423 49.5821 16.0475 49.5699 16.0568 49.5609C16.0661 49.552 16.0787 49.5469 16.0919 49.5469H17.2837C17.2968 49.5469 17.3094 49.552 17.3187 49.5609C17.328 49.5699 17.3332 49.5821 17.3332 49.5948V49.8374H18.0778V49.5948C18.0778 49.5821 18.083 49.5699 18.0923 49.5609C18.1016 49.552 18.1143 49.5469 18.1274 49.5469H27.463C27.4762 49.5469 27.4888 49.552 27.4981 49.5609C27.5074 49.5699 27.5126 49.5821 27.5126 49.5948V49.8374H28.258V49.5948C28.258 49.5821 28.2633 49.5699 28.2726 49.5609C28.2819 49.552 28.2945 49.5469 28.3077 49.5469H29.4995C29.5126 49.5471 29.5251 49.5521 29.5343 49.5611C29.5436 49.57 29.5489 49.5821 29.549 49.5948V49.8374H30.2936V49.5948C30.2936 49.5821 30.2988 49.5699 30.3081 49.5609C30.3174 49.552 30.33 49.5469 30.3431 49.5469H31.5351C31.5482 49.5469 31.5608 49.552 31.5701 49.5609C31.5794 49.5699 31.5846 49.5821 31.5846 49.5948V49.8374H32.3292V49.5948C32.3292 49.5821 32.3345 49.5699 32.3438 49.5609C32.3531 49.552 32.3657 49.5469 32.3788 49.5469H33.5706C33.5838 49.5469 33.5964 49.552 33.6057 49.5609C33.615 49.5699 33.6202 49.5821 33.6202 49.5948V49.8374H34.3656V49.5948C34.3656 49.5821 34.3708 49.5699 34.3801 49.5609C34.3894 49.552 34.4021 49.5469 34.4152 49.5469H35.607C35.62 49.5471 35.6325 49.5522 35.6417 49.5611C35.6508 49.5701 35.6559 49.5822 35.6558 49.5948V49.8374H36.4013V49.5948C36.4013 49.5821 36.4065 49.5699 36.4158 49.5609C36.4251 49.552 36.4377 49.5469 36.4508 49.5469H37.6426C37.6558 49.5469 37.6684 49.552 37.6777 49.5609C37.6869 49.5699 37.6922 49.5821 37.6922 49.5948V49.8374H38.4368V49.5948C38.4368 49.5821 38.442 49.5699 38.4513 49.5609C38.4606 49.552 38.4732 49.5469 38.4863 49.5469H39.6782C39.6913 49.5469 39.7039 49.552 39.7132 49.5609C39.7225 49.5699 39.7277 49.5821 39.7277 49.5948V49.8374H43.2038C43.3603 49.8374 43.5153 49.8671 43.6599 49.925C43.8045 49.9828 43.9359 50.0676 44.0466 50.1745C44.1573 50.2814 44.2451 50.4083 44.3049 50.548C44.3648 50.6877 44.3956 50.8374 44.3956 50.9886H44.3975Z" fill="#3F3D56"/>
<path d="M41.2065 28.8067H26.436V28.5126H19.7385V28.8067H4.90713C4.77591 28.8067 4.64595 28.8316 4.52473 28.8801C4.4035 28.9287 4.29335 28.9997 4.20057 29.0894C4.10779 29.179 4.03421 29.2854 3.984 29.4025C3.9338 29.5196 3.90795 29.6451 3.90796 29.7718V49.3083C3.90798 49.5643 4.01325 49.8097 4.20063 49.9907C4.388 50.1717 4.64215 50.2733 4.90713 50.2733H41.2065C41.4715 50.2733 41.7256 50.1716 41.9129 49.9906C42.1003 49.8097 42.2055 49.5642 42.2056 49.3083V29.7718C42.2056 29.6451 42.1797 29.5196 42.1295 29.4025C42.0793 29.2854 42.0058 29.179 41.913 29.0894C41.8202 28.9998 41.7101 28.9287 41.5888 28.8802C41.4676 28.8317 41.3377 28.8067 41.2065 28.8067Z" fill="#3F3D56"/>
<path d="M23.4494 36.9916C24.0171 36.9916 24.4773 36.5471 24.4773 35.9988C24.4773 35.4505 24.0171 35.006 23.4494 35.006C22.8818 35.006 22.4216 35.4505 22.4216 35.9988C22.4216 36.5471 22.8818 36.9916 23.4494 36.9916Z" fill="#D0CDE1"/>
<path d="M23.4406 37.3337C24.206 37.3337 24.8264 36.7344 24.8264 35.995C24.8264 35.2557 24.206 34.6564 23.4406 34.6564C22.6752 34.6564 22.0547 35.2557 22.0547 35.995C22.0547 36.7344 22.6752 37.3337 23.4406 37.3337Z" stroke="#D0CDE1" stroke-width="0.380722" stroke-miterlimit="10"/>
<path d="M20.8855 1.56781C17.7285 1.56792 15.2227 5.17056 15.187 9.63532L15.1797 10.6685C15.1712 10.6682 15.1628 10.6682 15.1543 10.6685C15.0581 10.6685 14.9629 10.7097 14.8741 10.7898C14.7852 10.8699 14.7046 10.9873 14.6366 11.1354C14.5686 11.2834 14.5147 11.4592 14.4779 11.6526C14.4411 11.846 14.4221 12.0533 14.4221 12.2627C14.4221 12.4721 14.4411 12.6794 14.4779 12.8728C14.5147 13.0662 14.5686 13.242 14.6366 13.39C14.7046 13.5381 14.7852 13.6555 14.8741 13.7356C14.9629 13.8157 15.0581 13.8569 15.1543 13.8569C15.1251 18.3136 17.9596 21.9606 21.1124 21.9606H23.3814C26.4263 21.9606 29.2691 17.7375 29.4696 13.4316C29.5036 13.4439 29.538 13.451 29.5724 13.4527C29.6686 13.4528 29.7638 13.4116 29.8526 13.3315C29.9415 13.2514 30.0222 13.134 30.0902 12.9859C30.1582 12.8379 30.2122 12.6621 30.249 12.4687C30.2858 12.2752 30.3047 12.0679 30.3047 11.8585C30.3047 11.6491 30.2858 11.4418 30.249 11.2483C30.2122 11.0549 30.1582 10.8791 30.0902 10.7311C30.0222 10.5831 29.9415 10.4656 29.8526 10.3855C29.7638 10.3055 29.6686 10.2643 29.5724 10.2643C29.5424 10.265 29.5125 10.2697 29.4828 10.2784V9.64363C29.4828 5.17866 26.9411 1.57623 23.7841 1.57623H20.8854L20.8855 1.56781Z" fill="#DEAA87"/>
<path opacity="0.6" d="M29.6564 11.962C29.7438 11.9545 29.7909 11.6901 29.7617 11.3715C29.7325 11.0528 29.6381 10.8005 29.5507 10.808C29.4634 10.8154 29.4162 11.0798 29.4454 11.3985C29.4746 11.7172 29.5691 11.9695 29.6564 11.962Z" fill="black"/>
<path opacity="0.6" d="M14.982 12.4932C14.8947 12.4857 14.8476 12.2213 14.8767 11.9026C14.9059 11.584 15.0004 11.3317 15.0877 11.3391C15.175 11.3466 15.2222 11.611 15.193 11.9297C15.1638 12.2484 15.0693 12.5006 14.982 12.4932Z" fill="black"/>
<path d="M15.6052 6.05701C16.9648 3.67547 16.8089 3.52472 16.8089 3.52472L17.3498 2.45289L18.0578 2.73672L18.5579 1.47016L19.1308 1.65715L19.9874 0.485449L19.7355 1.41758L20.8116 0.338672L20.8798 1.21389L21.8492 0.0697279L21.559 1.13613L22.8064 0L22.9614 0.608986L23.6545 0.172416L24.0683 1.17392L25.0509 0.633919L25.2624 1.43114L25.6739 0.945018L26.1093 1.95317L26.7041 1.72885L27.2523 2.22645L27.7952 2.97239L28.398 3.67868L28.8023 4.6495L29.0185 5.75954L29.1949 6.21791L27.7687 7.28456L25.5518 5.99549L22.5286 5.56037L19.7575 5.87237L16.7901 6.84352L15.6052 6.05701Z" fill="#333333"/>
<path d="M20.0212 12.9047C20.3137 12.9047 20.5508 12.6667 20.5508 12.3731C20.5508 12.0796 20.3137 11.8416 20.0212 11.8416C19.7288 11.8416 19.4917 12.0796 19.4917 12.3731C19.4917 12.6667 19.7288 12.9047 20.0212 12.9047Z" fill="black"/>
<path d="M24.2769 12.8435C24.5694 12.8435 24.8064 12.6055 24.8064 12.3119C24.8064 12.0183 24.5694 11.7803 24.2769 11.7803C23.9844 11.7803 23.7473 12.0183 23.7473 12.3119C23.7473 12.6055 23.9844 12.8435 24.2769 12.8435Z" fill="black"/>
<path d="M22.9409 16.0323H21.2382C21.2002 16.0323 21.1694 16.062 21.1694 16.0987V16.2021C21.1694 16.2388 21.2002 16.2685 21.2382 16.2685H22.9409C22.9788 16.2685 23.0096 16.2388 23.0096 16.2021V16.0987C23.0096 16.062 22.9788 16.0323 22.9409 16.0323Z" fill="black"/>
<path d="M21.4565 10.4555H18.9282C18.8478 10.4555 18.7827 10.5184 18.7827 10.596V10.8148C18.7827 10.8924 18.8478 10.9553 18.9282 10.9553H21.4565C21.5368 10.9553 21.602 10.8924 21.602 10.8148V10.596C21.602 10.5184 21.5368 10.4555 21.4565 10.4555Z" fill="black"/>
<path d="M25.5052 10.3946H22.9849C22.9024 10.3946 22.8354 10.4592 22.8354 10.539V10.7638C22.8354 10.8436 22.9024 10.9083 22.9849 10.9083H25.5052C25.5877 10.9083 25.6547 10.8436 25.6547 10.7638V10.539C25.6547 10.4592 25.5877 10.3946 25.5052 10.3946Z" fill="black"/>
<path d="M19.5735 17.3622C19.5744 17.8618 19.8408 18.3406 20.3142 18.6936C20.7875 19.0466 21.4291 19.2449 22.098 19.2449C22.7669 19.2449 23.4085 19.0466 23.8818 18.6936C24.3552 18.3406 24.6215 17.8618 24.6225 17.3622H19.5735Z" fill="#F2F2F2"/>
<path d="M19.7478 17.4123C19.7487 17.8542 19.9997 18.2779 20.4458 18.5902C20.8919 18.9025 21.4965 19.0779 22.1269 19.0779C22.7573 19.0779 23.3619 18.9025 23.808 18.5902C24.254 18.2779 24.5051 17.8542 24.506 17.4123H19.7478Z" fill="white"/>
<path d="M19.7888 17.1198C19.8106 17.1128 19.796 17.061 19.7888 17.0543C19.679 16.9268 19.4578 16.9864 19.2963 17.1086C19.1133 17.2491 19.1497 17.4572 19.2452 17.6307C19.2525 17.6448 19.3714 17.8054 19.4104 17.7336C19.4286 17.6984 19.3335 17.4547 19.3316 17.4356C19.3171 17.2729 19.3062 17.3423 19.378 17.1955C19.5111 17.1103 19.585 17.0993 19.7287 17.1194L19.7888 17.1198Z" fill="#808080"/>
<path d="M24.4636 17.1648C24.4417 17.1578 24.4454 17.1078 24.4527 17.1014C24.5624 16.9736 24.7724 17.0138 24.934 17.1388C25.117 17.2793 25.1196 17.4554 25.0241 17.6294C25.0168 17.6435 24.9176 17.697 24.9056 17.6889C24.8728 17.6678 24.9311 17.5322 24.9347 17.5136C24.9712 17.3484 24.9676 17.3505 24.8316 17.2449C24.7077 17.1498 24.6671 17.1519 24.5231 17.173L24.4636 17.1648Z" fill="#808080"/>
<path d="M22.4045 0.85675C18.4299 0.85675 15.4282 4.16919 15.1935 8.26968L15.0925 10.0327C15.1443 11.1905 15.0852 11.1772 15.0852 12.163C15.0852 13.1487 15.0852 13.1702 15.1071 14.0438L15.2974 15.4739C15.4097 16.319 15.8426 17.7884 16.4127 18.7542C16.895 19.5711 17.5567 20.3052 18.464 21.035C19.7183 21.932 20.0803 22.1176 21.1748 22.0961L23.4266 22.0531C24.1969 22.0105 25.6848 21.3859 26.5483 20.4293C27.4574 19.4246 27.155 19.7717 27.6605 19.0709C28.3875 18.0633 29.5788 16.0866 29.5788 14.343V14.2268C29.5533 13.0576 29.5606 13.0592 29.5606 12.1075C29.5606 11.1557 29.5606 11.1555 29.5788 10.3237V8.27087C29.5788 4.16411 26.379 0.85802 22.4044 0.85802L22.4045 0.85675ZM21.2433 5.3417L23.5563 5.45896L26.4781 5.41002L27.4651 6.17578L27.6138 7.39949L27.9525 8.63183L28.9029 9.5286L29.1333 10.8055L29.1005 14.7691L28.8518 16.1221L28.0822 17.5648L26.8021 19.4327L25.5644 20.6696L24.2833 21.3665L23.3874 21.4299C23.0932 21.3264 22.4551 19.9665 22.4371 19.3684L22.1425 19.3614C22.0291 19.7118 22.0215 21.0767 21.5346 21.4283L20.2018 21.3857L19.2054 20.6968L17.4994 19.4212L16.867 18.5127L16.2573 17.27L15.8357 16.0564L15.5597 14.6215L15.6017 10.6622L16.1841 9.0433L16.8234 8.21949C16.901 7.75447 16.8758 7.44376 16.8882 7.0972C16.8955 6.88062 16.9064 6.39932 16.9917 6.18081C17.0654 5.99558 17.2587 5.98079 17.2587 5.98079C17.4785 5.89627 17.4209 5.7945 17.6535 5.71808C17.7847 5.67547 17.9156 5.63708 18.0473 5.60398C18.9952 5.36275 19.9694 5.35571 21.2427 5.34127L21.2433 5.3417Z" fill="#333333"/>
</g>
<defs>
<clipPath id="clip0">
<rect width="45.4353" height="52.6604" fill="white"/>
</clipPath>
</defs>
</svg>
